<?xml version="1.0" encoding="UTF-8" standalone="no"?>
<svg
   width="163"
   height="40"
   viewBox="0 0 490.91768 123.55556"
   version="1.1"
   id="svg11"
   sodipodi:docname="angular.svg"
   inkscape:version="1.4.2 (unknown)"
   xmlns:inkscape="http://www.inkscape.org/namespaces/inkscape"
   xmlns:sodipodi="http://sodipodi.sourceforge.net/DTD/sodipodi-0.dtd"
   xmlns="http://www.w3.org/2000/svg"
   xmlns:svg="http://www.w3.org/2000/svg">
  <sodipodi:namedview
     id="namedview11"
     pagecolor="#b9b9b9"
     bordercolor="#999999"
     borderopacity="1"
     inkscape:showpageshadow="2"
     inkscape:pageopacity="0"
     inkscape:pagecheckerboard="0"
     inkscape:deskcolor="#000000"
     showgrid="false"
     inkscape:zoom="7.6764706"
     inkscape:cx="110.72797"
     inkscape:cy="22.666667"
     inkscape:window-width="1920"
     inkscape:window-height="1061"
     inkscape:window-x="1366"
     inkscape:window-y="0"
     inkscape:window-maximized="1"
     inkscape:current-layer="g10" />
  <defs
     id="defs1" />
  <g
     stroke="none"
     stroke-width="1"
     fill="none"
     fill-rule="evenodd"
     id="g11">
    <g
       id="g10">
      <g
         transform="translate(135.11179,25.37778)"
         fill="#b52e31"
         id="g6">
        <path
           d="M 0.6,71.8 V 8.8 H 8.7 L 47.2,59.5 V 8.8 h 7.7 v 63 H 46.8 L 8.3,20.6 v 51.2 z"
           id="path1"
           style="fill:#ffffff" />
        <path
           d="M 117.6,69.3 C 112.5,71.2 107,72.2 101.2,72.2 78.4,72.2 67,61.3 67,39.4 67,18.7 78,8.3 100,8.3 c 6.3,0 12.2,0.9 17.6,2.6 v 7 c -5.4,-2.1 -11,-3.1 -16.7,-3.1 -17.2,0 -25.8,8.2 -25.8,24.4 0,17.5 8.5,26.2 25.4,26.2 2.7,0 5.7,-0.4 9,-1.1 V 43.2 h 8.1 z"
           id="path2"
           style="fill:#ffffff" />
        <path
           d="M 130.6,47.5 V 8.8 h 8.1 v 38.7 c 0,12.1 6,18.2 18.1,18.2 12,0 18.1,-6.1 18.1,-18.2 V 8.8 h 8.1 v 38.7 c 0,16.5 -8.7,24.8 -26.2,24.8 -17.5,0 -26.2,-8.3 -26.2,-24.8 z"
           id="path3"
           style="fill:#ffffff" />
        <path
           d="m 205.6,8.8 v 56.4 h 33 v 6.6 h -41.1 v -63 z"
           id="path4"
           style="fill:#ffffff" />
        <path
           d="m 250.3,71.8 h -8.5 l 31.3,-71.3 31.3,71.3 h -9 L 287.3,52 h -20.8 l 2.2,-6.6 h 15.9 L 272.8,16.9 Z"
           id="path5"
           style="fill:#ffffff" />
        <path
           d="M 313.1,71.8 V 8.8 H 340 c 12,0 18,5 18,15.1 0,8.2 -5.9,14.3 -17.6,18.2 L 362,71.8 h -10.7 l -20,-28.3 v -5.3 c 12,-1.9 18.1,-6.5 18.1,-13.9 0,-5.8 -3.3,-8.7 -10,-8.7 h -18 v 56.2 z"
           id="path6"
           style="fill:#ffffff" />
      </g>
      <path
         id="path7"
         style="fill:#ffffff;stroke-width:0.895324"
         d="M 57.74947,0 0.00230035,20.590423 8.8661209,96.961875 57.74947,124.09348 107.43763,96.605384 117.01985,20.233925 Z M 57.835894,14.502961 95.354535,94.72567 82.547641,94.455595 74.672291,76.193206 H 57.835894 42.528113 l -7.25418,18.084139 -13.428068,0.270075 z m 0.09182,25.694816 -10.651708,25.430144 h 10.559884 0.62657 11.640179 z" />
      <g
         id="g9" />
    </g>
  </g>
</svg>
