<?xml version="1.0" encoding="UTF-8" standalone="no"?>
<svg
   width="540"
   height="180"
   preserveAspectRatio="xMidYMid"
   version="1.1"
   id="svg1"
   sodipodi:docname="expo.svg"
   inkscape:version="1.4.2 (unknown)"
   xmlns:inkscape="http://www.inkscape.org/namespaces/inkscape"
   xmlns:sodipodi="http://sodipodi.sourceforge.net/DTD/sodipodi-0.dtd"
   xmlns="http://www.w3.org/2000/svg"
   xmlns:svg="http://www.w3.org/2000/svg">
  <defs
     id="defs1" />
  <sodipodi:namedview
     id="namedview1"
     pagecolor="#505050"
     bordercolor="#eeeeee"
     borderopacity="1"
     inkscape:showpageshadow="0"
     inkscape:pageopacity="0"
     inkscape:pagecheckerboard="0"
     inkscape:deskcolor="#505050"
     inkscape:zoom="1.6757812"
     inkscape:cx="256"
     inkscape:cy="256"
     inkscape:window-width="1920"
     inkscape:window-height="1061"
     inkscape:window-x="1366"
     inkscape:window-y="0"
     inkscape:window-maximized="1"
     inkscape:current-layer="svg1" />
  <g
     class="layer"
     id="g1"
     transform="translate(13.724942,16.111888)">
    <g
       fill="#000020"
       id="svg_1">
      <path
         d="m 66.68,46.54 c 1.15,-1.69 2.41,-1.91 3.43,-1.91 1.02,0 2.73,0.22 3.88,1.91 9.07,12.46 24.04,37.28 35.08,55.59 7.21,11.93 12.74,21.1 13.87,22.27 4.26,4.38 10.11,1.65 13.5,-3.32 3.34,-4.89 4.27,-8.32 4.27,-11.99 C 140.71,106.6 92.28,16.53 87.41,9.03 82.72,1.82 81.19,0 73.16,0 h -6 C 59.15,0 58,1.82 53.3,9.03 48.43,16.53 0,106.6 0,109.09 c 0,3.67 0.93,7.1 4.27,11.99 3.4,4.97 9.24,7.7 13.5,3.32 1.13,-1.17 6.67,-10.34 13.87,-22.27 C 42.68,83.82 57.61,59 66.68,46.54 Z"
         fill="#ffffff"
         id="svg_2" />
      <path
         d="m 387.84,39.39 c 19.95,0 35.81,18.01 35.81,40.28 0,22.28 -15.86,40.44 -35.81,40.44 -10.68,0 -19,-4.42 -24.34,-12.48 v 0 36.49 H 341.36 V 40.97 h 22.14 v 10.9 c 5.34,-8.05 13.66,-12.48 24.34,-12.48 z m 84.11,0 c 22.62,0 40.05,17.38 40.05,40.44 0,23.06 -17.43,40.28 -40.05,40.28 -22.77,0 -40.05,-17.22 -40.05,-40.28 0,-23.06 17.28,-40.44 40.05,-40.44 z M 241.75,7.96 v 22.43 h -44.13 v 19.9 h 39.26 V 72.72 H 197.62 V 96.1 h 44.13 v 22.43 H 174.38 V 7.96 Z m 36.03,33.01 12.73,18.33 12.87,-18.33 h 26.39 l -26.07,37.44 27.95,40.12 h -26.7 l -14.6,-21.01 -14.61,21.01 h -26.38 l 27.8,-39.96 -26.07,-37.6 z m 105.04,19.59 c -10.84,0 -19.32,8.37 -19.32,19.11 0,10.9 8.48,19.12 19.32,19.12 10.68,0 19.31,-8.38 19.31,-19.12 0,-10.58 -8.63,-19.11 -19.31,-19.11 z m 89.13,0.16 c -10.52,0 -18.37,8.05 -18.37,19.11 0,10.74 7.85,18.96 18.37,18.96 10.37,0 18.38,-8.22 18.38,-18.96 0,-11.06 -8.01,-19.11 -18.38,-19.11 z"
         fill="#ffffff"
         id="svg_3" />
    </g>
  </g>
</svg>
