<?xml version="1.0" encoding="UTF-8" standalone="no"?>
<svg
   class="express-logo"
   height="40"
   viewBox="0 0 2203.2999 333.33333"
   width="177"
   version="1.1"
   id="svg1"
   sodipodi:docname="express.svg"
   inkscape:version="1.4.2 (unknown)"
   xmlns:inkscape="http://www.inkscape.org/namespaces/inkscape"
   xmlns:sodipodi="http://sodipodi.sourceforge.net/DTD/sodipodi-0.dtd"
   xmlns="http://www.w3.org/2000/svg"
   xmlns:svg="http://www.w3.org/2000/svg">
  <defs
     id="defs1" />
  <sodipodi:namedview
     id="namedview1"
     pagecolor="#505050"
     bordercolor="#eeeeee"
     borderopacity="1"
     inkscape:showpageshadow="0"
     inkscape:pageopacity="0"
     inkscape:pagecheckerboard="0"
     inkscape:deskcolor="#505050"
     inkscape:zoom="4.8444444"
     inkscape:cx="73.692661"
     inkscape:cy="14.862385"
     inkscape:window-width="1920"
     inkscape:window-height="1061"
     inkscape:window-x="1366"
     inkscape:window-y="0"
     inkscape:window-maximized="1"
     inkscape:current-layer="svg1" />
  <path
     d="M 683.78589,409.6787 V -72.669885 H 709.9493 V 3.2039997 a 99.211643,99.211643 0 0 0 8.53973,-10.6955998 c 21.85169,-45.3359519 67.94116,-73.9482639 118.25862,-73.3831249 59.65256,-1.779131 108.12813,20.302797 136.61485,73.3831249 a 235.88929,235.88929 0 0 1 5.69314,216.2353201 c -26.54014,59.48514 -92.09518,89.06024 -162.27592,78.19719 A 131.23566,131.23566 0 0 1 712.04238,217.82765 v 191.8301 z m 26.16341,-311.721317 5.86061,56.638537 c 10.33979,64.46663 48.45462,102.56056 108.29559,109.71889 a 123.07267,123.07267 0 0 0 135.19155,-78.1972 C 982.57201,130.65117 980.8557,67.859002 954.69228,13.690294 A 120.56099,120.56099 0 0 0 827.68464,-56.490444 117.42138,117.42138 0 0 0 722.77985,30.246486 599.03738,599.03738 0 0 0 709.9493,97.936471 Z M 1536.6711,163.5124 A 141.07309,141.07309 0 0 1 1398.8004,288.19676 C 1289.0816,293.72247 1237.5919,220.8626 1229.408,136.78388 a 242.58712,242.58712 0 0 1 21.3704,-133.6008193 149.02676,149.02676 0 0 1 155.1385,-83.1787107 142.53824,142.53824 0 0 1 126.4634,108.483963 731.94749,731.94749 0 0 1 12.2864,80.164667 h -288.1533 c -5.3374,76.22972 35.624,137.51489 93.686,152.29196 72.3155,17.79113 134.124,-13.54217 156.5617,-82.29961 4.9816,-17.64459 14.0654,-20.13536 30.0984,-15.13293 z M 1256.3041,84.247766 H 1514.045 C 1512.4333,3.0365517 1461.8648,-55.988102 1393.2746,-56.657893 1315.831,-57.913722 1259.6739,-1.2542551 1256.3041,84.247766 Z m 333.6357,81.043764 h 25.2634 a 101.30471,101.30471 0 0 0 59.4851,87.28113 155.51529,155.51529 0 0 0 135.0242,-3.55823 60.699108,60.699108 0 0 0 35.624,-59.6735 55.04781,55.04781 0 0 0 -37.0474,-55.04781 c -27.7959,-10.33978 -57.3501,-16.03292 -85.6693,-25.11685 A 627.92179,627.92179 0 0 1 1636.406,77.654588 c -45.629,-22.270296 -48.4546,-109.007228 3.2024,-136.468343 a 181.88801,181.88801 0 0 1 173.8507,-2.679125 c 33.3635,18.419037 51.8035,55.6129421 46.3196,93.351027 h -21.6633 c 0,-1.046522 -1.9675,-1.967475 -1.9675,-3.034938 -2.679,-69.071399 -60.741,-90.671923 -123.0725,-84.602005 -18.8378,2.093066 -36.6917,7.786231 -53.4363,16.200378 a 53.373352,53.373352 0 0 0 -30.9774,53.436159 53.373352,53.373352 0 0 0 35.624,50.233736 c 27.2101,9.983951 56.0945,16.388764 84.2462,24.216854 l 68.0249,17.791119 a 80.37399,80.37399 0 0 1 55.2152,72.50401 c 5.442,36.52412 -13.1862,72.42032 -46.1313,89.06026 -59.4851,33.6566 -157.4618,24.76105 -201.1024,-17.79113 -22.333,-22.45866 -34.7868,-52.95474 -34.5357,-84.60201 z M 2192.3262,31.879087 h -23.6936 c 0,-3.202407 -1.2559,-6.279222 -1.6117,-8.728104 a 77.443687,77.443687 0 0 0 -63.0641,-74.450607 155.51529,155.51529 0 0 0 -99.9234,4.814069 60.699108,60.699108 0 0 0 -43.9966,57.894395 55.885038,55.885038 0 0 0 42.7406,56.282715 l 108.2955,27.79601 a 301.19315,301.19315 0 0 1 34.536,10.507235 c 34.5356,12.55841 57.9779,44.62429 59.0245,81.274 a 88.955588,88.955588 0 0 1 -54.4199,84.56014 198.21398,198.21398 0 0 1 -160.3083,1.61166 111.14215,111.14215 0 0 1 -66.9785,-107.93978 h 23.1495 c 8.7072,41.96613 37.5287,76.92043 77.0669,93.45571 39.5381,16.53527 84.6856,12.47472 120.6446,-10.80024 a 63.629407,63.629407 0 0 0 34.2009,-59.48513 55.04781,55.04781 0 0 0 -37.5915,-54.69199 c -27.7962,-10.33979 -57.3501,-15.84457 -85.6695,-25.11688 a 631.06139,631.06139 0 0 1 -86.737,-31.165845 C 1923.45,55.781983 1919.8917,-30.2433 1970.6697,-57.683498 a 179.37632,179.37632 0 0 1 176.6973,-1.967476 93.141732,93.141732 0 0 1 44.708,91.38355 z M 640.7314,279.48958 a 40.814916,40.814916 0 0 1 -50.58957,-19.23535 l -92.0952,-127.36346 -13.3538,-17.79113 -106.87229,145.34298 a 39.140458,39.140458 0 0 1 -48.09882,18.87951 L 467.40405,94.608476 339.308,-72.293132 c 19.0051,-6.86528 40.187,0.586058 50.75703,17.791123 l 95.44411,128.933272 96.00923,-128.43095 a 38.30323,38.30323 0 0 1 47.74298,-17.812041 L 579.55088,-5.8590199 512.21673,81.777947 a 17.791118,17.791118 0 0 0 0,26.540163 l 128.24255,171.17147 z m 584.5952,-353.561822 v 25.116867 A 129.14259,129.14259 0 0 0 1087.8117,84.457071 V 280.3896 H 1062.339 V -72.502436 h 25.1168 V -0.18679337 C 1118.2659,-52.932224 1165.8205,-72.502436 1225.494,-73.925733 Z M 0.04186095,92.306099 11.260731,36.90246 C 42.07076,-72.648965 167.65511,-118.23608 254.05716,-50.37867 c 50.58954,39.72652 63.21079,96.009253 60.74098,159.42934 H 29.784423 c -4.60476,113.27709 77.129727,181.67871 181.678707,146.76625 34.45197,-12.55842 60.38514,-41.19166 68.92487,-76.7739 5.52572,-17.79112 14.65151,-20.84702 31.35423,-15.69805 A 144.63131,144.63131 0 0 1 242.62898,268.98236 167.44582,167.44582 0 0 1 47.575541,244.05387 C 22.123778,215.44154 6.7606247,179.27327 3.7675311,141.07467 c 0,-6.27922 -2.0930732,-12.13981 -3.55822437,-17.79111 Q 0,107.43901 0,92.306099 Z M 30.140247,84.645457 H 287.88122 C 286.26956,2.5342078 234.44508,-55.716001 165.33181,-56.260202 88.390458,-57.306746 33.342647,-0.33330236 29.951869,84.289623 Z"
     id="path1"
     style="fill:#ffffff;stroke-width:1.96789" />
</svg>
