<?xml version="1.0" encoding="UTF-8" standalone="no"?>
<svg
   width="94"
   height="40"
   viewBox="0 0 94 40"
   fill="none"
   version="1.1"
   id="svg4"
   sodipodi:docname="gsap.svg"
   inkscape:version="1.4.2 (unknown)"
   xmlns:inkscape="http://www.inkscape.org/namespaces/inkscape"
   xmlns:sodipodi="http://sodipodi.sourceforge.net/DTD/sodipodi-0.dtd"
   xmlns="http://www.w3.org/2000/svg"
   xmlns:svg="http://www.w3.org/2000/svg">
  <sodipodi:namedview
     id="namedview4"
     pagecolor="#505050"
     bordercolor="#eeeeee"
     borderopacity="1"
     inkscape:showpageshadow="0"
     inkscape:pageopacity="0"
     inkscape:pagecheckerboard="0"
     inkscape:deskcolor="#505050"
     inkscape:zoom="3.3030303"
     inkscape:cx="33"
     inkscape:cy="19.981651"
     inkscape:window-width="1920"
     inkscape:window-height="1061"
     inkscape:window-x="1366"
     inkscape:window-y="0"
     inkscape:window-maximized="1"
     inkscape:current-layer="svg4" />
  <g
     clip-path="url(#clip0_328_461)"
     id="g4"
     transform="matrix(1.4396025,0,0,1.4396025,0,-8.7920496)">
    <path
       d="m 33.276,14.92 c -0.0037,0.1138 -0.0515,0.2216 -0.1334,0.3007 -0.0818,0.0792 -0.1912,0.1234 -0.305,0.1233 h -4.5168 c -0.296,0 -0.5432,-0.24 -0.5432,-0.532 0,-1.3176 -0.456,-1.9592 -1.3888,-1.9592 -0.9328,0 -1.5344,0.5728 -1.552,1.5736 -0.02,1.116 0.6112,2.1304 2.408,3.8728 2.3656,2.2192 3.3136,4.1848 3.268,6.7832 C 30.4384,29.284 27.5816,32 23.2344,32 c -2.22,0 -3.916,-0.5936 -5.044,-1.7648 -1.1448,-1.1896 -1.6696,-2.9352 -1.56,-5.188 0.0038,-0.1139 0.0517,-0.2219 0.1337,-0.301 0.082,-0.0792 0.1916,-0.1233 0.3055,-0.123 h 4.672 c 0.0651,10e-4 0.1291,0.0165 0.1875,0.0453 0.0584,0.0288 0.1097,0.0701 0.1501,0.1211 0.0353,0.0421 0.0612,0.0914 0.0758,0.1444 0.0146,0.053 0.0177,0.1085 0.009,0.1628 -0.052,0.8128 0.0896,1.42 0.4096,1.756 0.2048,0.2176 0.4904,0.328 0.8464,0.328 0.8632,0 1.3688,-0.6096 1.388,-1.672 0.016,-0.9184 -0.2744,-1.7232 -1.8568,-3.3512 -2.044,-1.9968 -3.8768,-4.06 -3.82,-7.304 C 19.1648,12.972 19.912,11.2512 21.236,10.008 22.636,8.6944 24.5504,8 26.7728,8 c 2.2264,0.016 3.9136,0.6512 5.0152,1.888 1.0432,1.172 1.5448,2.8648 1.4896,5.032 z"
       fill="#f6f6f6"
       id="path1" />
    <path
       d="M 47.2761,31.2093 47.3057,8.86294 C 47.3066,8.80697 47.2962,8.75141 47.2753,8.6995 47.2544,8.64759 47.2233,8.60038 47.1839,8.56066 47.1444,8.52093 47.0975,8.48949 47.0457,8.46818 46.994,8.44686 46.9385,8.4361 46.8825,8.43654 h -6.9904 c -0.2352,0 -0.3384,0.2024 -0.4056,0.336 L 29.3649,31.0725 v 0.004 l -0.004,0.0056 c -0.112,0.2744 0.1008,0.568 0.3976,0.568 h 4.8864 c 0.264,0 0.4392,-0.08 0.5248,-0.2464 l 0.9704,-2.332 c 0.1192,-0.3112 0.1416,-0.34 0.4808,-0.34 h 4.6688 c 0.3248,0 0.3312,0.0064 0.3264,0.324 l -0.1048,2.168 c -9e-4,0.0559 0.0095,0.1114 0.0303,0.1633 0.0209,0.0518 0.0519,0.099 0.0913,0.1387 0.0393,0.0397 0.0862,0.0712 0.1378,0.0926 0.0517,0.0213 0.1071,0.0322 0.163,0.0318 h 4.9368 c 0.0611,8e-4 0.1216,-0.0119 0.1773,-0.037 0.0557,-0.0252 0.1053,-0.0622 0.1451,-0.1086 0.0344,-0.0402 0.0596,-0.0875 0.074,-0.1384 0.0143,-0.051 0.0175,-0.1045 0.0092,-0.1568 z m -8.648,-7.4608 c -0.0368,2e-4 -0.0737,-0.0011 -0.1104,-0.004 -0.0171,-0.0014 -0.0337,-0.0065 -0.0486,-0.0151 -0.015,-0.0085 -0.0278,-0.0202 -0.0377,-0.0342 -0.0099,-0.014 -0.0167,-0.0301 -0.0197,-0.047 -0.0031,-0.0169 -0.0024,-0.0343 0.002,-0.0509 0.0096,-0.032 0.0232,-0.076 0.0432,-0.1296 l 3.5008,-8.6624 c 0.0315,-0.0854 0.0678,-0.169 0.1088,-0.2504 0.0568,-0.1168 0.1256,-0.1248 0.1472,-0.0384 0.0184,0.072 -0.4016,8.8944 -0.4016,8.8944 -0.0328,0.3304 -0.048,0.344 -0.3736,0.3712 l -2.8072,-0.032 h -0.0064 z"
       fill="#f6f6f6"
       id="path2" />
    <path
       d="m 57.2346,8.43697 h -3.7112 c -0.196,0 -0.416,0.104 -0.4672,0.3376 L 47.8914,31.1986 c -0.0113,0.0505 -0.0108,0.103 0.0014,0.1534 0.0122,0.0503 0.0358,0.0972 0.069,0.137 0.0431,0.0507 0.0967,0.0914 0.157,0.1193 0.0604,0.0279 0.1261,0.0423 0.1926,0.0423 h 4.6384 c 0.2496,0 0.42,-0.1224 0.4664,-0.3344 l 0.5632,-2.5416 c 0.04,-0.1984 -0.0288,-0.352 -0.2064,-0.4448 -0.0833,-0.0429 -0.1665,-0.0861 -0.2496,-0.1296 l -0.804,-0.4184 -0.8,-0.4176 -0.3096,-0.1608 c -0.0252,-0.0126 -0.0463,-0.032 -0.0609,-0.0561 -0.0146,-0.0241 -0.022,-0.0518 -0.0215,-0.0799 0.0011,-0.0417 0.0184,-0.0813 0.0483,-0.1103 0.0299,-0.029 0.07,-0.0452 0.1117,-0.0449 l 2.5416,0.0112 c 0.76,0.004 1.5208,-0.0496 2.2688,-0.1872 5.264,-0.972 8.76,-5.188 8.8608,-10.9248 0.0864,-4.896 -2.6464,-7.37683 -8.12,-7.37683 z M 55.9714,21.781 h -0.0992 c -0.2232,0 -0.2624,-0.024 -0.2688,-0.032 -0.004,-0.0056 1.4656,-6.4584 1.4664,-6.4672 0.0376,-0.1864 0.036,-0.2936 -0.0792,-0.3568 -0.1472,-0.0816 -2.2928,-1.2128 -2.2928,-1.2128 -0.0249,-0.0131 -0.0457,-0.033 -0.06,-0.0573 -0.0143,-0.0243 -0.0215,-0.0521 -0.0208,-0.0803 0.0011,-0.0411 0.0181,-0.0802 0.0476,-0.1089 0.0294,-0.0287 0.0689,-0.0447 0.11,-0.0447 h 3.3928 c 1.056,0.032 1.6448,0.9768 1.6168,2.5904 -0.0488,2.7928 -1.3768,5.6712 -3.8128,5.7696 z"
       fill="#f6f6f6"
       id="path3" />
    <path
       d="m 19.0483,19.134 v 0.0104 l -0.86,3.7328 c -0.0464,0.2112 -0.2576,0.3656 -0.5008,0.3656 h -1.0392 c -0.0375,10e-5 -0.0739,0.0124 -0.1039,0.0348 -0.0299,0.0225 -0.0519,0.054 -0.0625,0.09 -0.9584,3.2512 -2.256,5.4856 -3.9696,6.8272 -1.4576,1.1424 -3.25442,1.6752 -5.65522,1.6752 -2.1568,0 -3.6112,-0.6936 -4.8448,-2.0632 -1.6304,-1.8096 -2.304,-4.7728 -1.896,-8.3424 0.736,-6.7016 4.212,-13.46404 10.90482,-13.46404 2.036,-0.0176 3.6344,0.6104 4.7464,1.864 1.176,1.32644 1.7728,3.32324 1.776,5.93764 -0.0029,0.1146 -0.0505,0.2235 -0.1325,0.3036 -0.082,0.0801 -0.1921,0.125 -0.3067,0.1252 h -4.904 c -0.086,-0.0027 -0.1676,-0.0382 -0.2282,-0.0992 -0.0605,-0.061 -0.0954,-0.1429 -0.0974,-0.2288 -0.04,-1.808 -0.576,-2.688 -1.6416,-2.688 -1.88002,0 -2.98882,2.552 -3.57682,3.9664 -0.8216,1.976 -1.24,4.1224 -1.1576,6.26 0.0392,0.9952 0.1992,2.3944 1.144,2.9744 0.8376,0.5136 2.0328,0.1728 2.7568,-0.396 0.72322,-0.5696 1.30562,-1.5544 1.55042,-2.4528 0.0344,-0.1248 0.0368,-0.2216 0.004,-0.2648 -0.0344,-0.0448 -0.1296,-0.0552 -0.2024,-0.0552 H 9.49228 C 9.42563,23.247 9.35974,23.2326 9.29921,23.2047 9.23869,23.1768 9.18499,23.136 9.14188,23.0852 9.1088,23.0455 9.08531,22.9987 9.07324,22.9485 9.06117,22.8983 9.06084,22.8459 9.07228,22.7956 l 0.8608,-3.7392 c 0.0424,-0.1912 0.21602,-0.336 0.42962,-0.3616 v -0.0096 h 8.264 c 0.0192,0 0.0392,0 0.0576,0.004 0.2144,0.028 0.3656,0.2272 0.3616,0.4448 z"
       fill="#f6f6f6"
       id="path4" />
  </g>
  <defs
     id="defs4">
    <clipPath
       id="clip0_328_461">
      <rect
         width="65.599998"
         height="24"
         fill="#ffffff"
         transform="translate(0,8)"
         id="rect4"
         x="0"
         y="0" />
    </clipPath>
  </defs>
</svg>
