<?xml version="1.0" encoding="UTF-8" standalone="no"?>
<svg
   viewBox="0 0 107 40"
   version="1.1"
   id="svg1"
   sodipodi:docname="jest.svg"
   width="107"
   height="40"
   inkscape:version="1.4.2 (unknown)"
   xmlns:inkscape="http://www.inkscape.org/namespaces/inkscape"
   xmlns:sodipodi="http://sodipodi.sourceforge.net/DTD/sodipodi-0.dtd"
   xmlns="http://www.w3.org/2000/svg"
   xmlns:svg="http://www.w3.org/2000/svg">
  <defs
     id="defs1" />
  <sodipodi:namedview
     id="namedview1"
     pagecolor="#505050"
     bordercolor="#eeeeee"
     borderopacity="1"
     inkscape:showpageshadow="0"
     inkscape:pageopacity="0"
     inkscape:pagecheckerboard="0"
     inkscape:deskcolor="#505050"
     inkscape:zoom="3.40625"
     inkscape:cx="66.055046"
     inkscape:cy="64"
     inkscape:window-width="1920"
     inkscape:window-height="1061"
     inkscape:window-x="1366"
     inkscape:window-y="0"
     inkscape:window-maximized="1"
     inkscape:current-layer="svg1" />
  <path
     fill="#99425B"
     d="m 37.956601,19.238073 c 0,-2.35235 -1.782306,-4.331907 -4.175024,-4.896753 L 39.140421,0 H 12.583213 l 5.371076,14.386582 c -2.317487,0.610411 -4.025784,2.555412 -4.025784,4.863418 0,1.696064 0.93519,3.200077 2.355714,4.127316 -0.560258,0.723869 -1.208898,1.391469 -1.943777,2.024512 -1.383214,1.176786 -2.917195,2.08109 -4.5741147,2.680798 -1.4954485,-0.91623 -2.1431704,-2.533699 -1.5578353,-3.981746 2.280482,-0.633043 3.938932,-2.567034 3.938932,-4.840176 0,-2.793034 -2.5052588,-5.055778 -5.5719984,-5.055778 -3.0783608,0 -5.58209021,2.273448 -5.58209021,5.067399 0,1.380155 0.62233901,2.646239 1.61991631,3.550543 -0.087464,0.159025 -0.1743161,0.316521 -0.26178,0.48625 -0.8348822,1.561505 -1.78230543,3.325767 -2.14439357,5.305325 -0.72264718,3.957586 0.46117307,7.136561 3.31506367,8.934464 1.6079894,1.007058 3.3783679,1.515938 5.2851412,1.515938 3.276531,0 6.604743,-1.493308 9.819499,-2.941355 2.293633,-1.028464 4.661274,-2.103719 6.991909,-2.623303 0.860266,-0.19236 1.757229,-0.305818 2.704653,-0.42998 1.918394,-0.248631 3.900398,-0.508881 5.682703,-1.447742 2.08109,-1.096662 3.501613,-2.929427 3.91355,-5.032841 0.310404,-1.617775 0,-3.245949 -0.798185,-4.67106 a 4.6943014,4.6943014 0 0 0 0.834883,-2.680491 z m -2.429722,0 c 0,1.571902 -1.408596,2.850221 -3.140747,2.850221 -1.732152,0 -3.140748,-1.278319 -3.140748,-2.850221 0,-0.509186 0.149545,-0.995131 0.411019,-1.41349 0.09939,-0.159025 0.224776,-0.316521 0.348632,-0.452609 a 2.6046492,2.6046492 0 0 1 0.436402,-0.372793 l 0.01315,-0.01195 c 0.09909,-0.06789 0.211319,-0.136089 0.323554,-0.203062 0,0 0.01223,0 0.01223,-0.01195 0.04984,-0.02263 0.100002,-0.05627 0.150462,-0.0789 0.01195,0 0.02385,-0.01195 0.0367,-0.01195 0.05046,-0.0214 0.112538,-0.04404 0.174316,-0.06698 a 2.6850792,2.6850792 0 0 0 0.174622,-0.06789 c 0.01223,0 0.02507,-0.01223 0.037,-0.01223 0.05016,-0.01037 0.100307,-0.03333 0.149545,-0.04404 0.01315,0 0.03823,-0.01195 0.05016,-0.01195 0.06209,-0.01073 0.112234,-0.02264 0.174316,-0.03364 h 0.01315 l 0.18655,-0.03456 c 0.01284,0 0.0367,0 0.04984,-0.01073 0.05016,0 0.09939,-0.01195 0.149546,-0.01195 h 0.06209 c 0.06209,0 0.125386,-0.01073 0.199394,-0.01073 h 0.162389 c 0.04893,0 0.08746,0 0.136395,0.01073 h 0.02507 c 0.100307,0.01223 0.199393,0.02264 0.299701,0.04557 1.420524,0.270954 2.505259,1.425109 2.505259,2.804959 z M 16.059443,2.2615217 H 35.662968 L 31.164085,14.306763 c -0.18655,0.03456 -0.374016,0.09053 -0.56026,0.146792 l -4.73528,-8.7647345 -4.748737,8.7081585 c -0.187466,-0.05596 -0.38686,-0.09053 -0.585335,-0.124162 z M 24.970053,18.25334 C 24.733656,17.190012 24.13517,16.240448 23.288056,15.539208 l 2.580489,-4.727024 2.604037,4.828555 c -0.772801,0.70124 -1.333365,1.59484 -1.557835,2.612601 z M 18.72709,16.467364 c 0.06209,-0.01223 0.112234,-0.02263 0.174317,-0.03456 h 0.037 c 0.05016,-0.01073 0.100611,-0.01073 0.149545,-0.02294 h 0.05016 c 0.05015,0 0.08716,-0.01073 0.137311,-0.01073 h 0.48625 c 0.04893,0 0.08716,0.01073 0.124162,0.01073 0.02507,0 0.037,0 0.06209,0.01223 0.05016,0.01073 0.08716,0.01073 0.137618,0.02264 0.01159,0 0.02477,0 0.04984,0.01073 0.06239,0.01195 0.124468,0.02263 0.174315,0.03456 h 0.01223 c 0.05016,0.01073 0.100307,0.0214 0.149239,0.04434 0.01315,0 0.02507,0.01195 0.05015,0.01195 0.037,0.01073 0.08716,0.02264 0.124162,0.04526 0.01315,0 0.02507,0.01073 0.03823,0.01073 0.04893,0.02294 0.09939,0.03487 0.149546,0.05749 h 0.01195 c 0.06209,0.0214 0.112234,0.04404 0.16239,0.0789 h 0.01223 c 0.04984,0.02263 0.100002,0.05596 0.150157,0.0786 0.01223,0 0.01223,0.01223 0.02385,0.01223 0.05016,0.0214 0.08747,0.05596 0.137617,0.0786 l 0.01315,0.01073 c 0.149239,0.101832 0.286551,0.215296 0.422639,0.328754 l 0.01315,0.01073 c 0.124468,0.124162 0.24863,0.260251 0.348938,0.407349 0.323861,0.45261 0.511328,0.984427 0.511328,1.5612 0,1.572208 -1.408597,2.849303 -3.140747,2.849303 -1.732152,0 -3.140749,-1.277095 -3.140749,-2.849303 -0.01284,-1.32358 0.99666,-2.442872 2.367946,-2.759394 z M 6.4631905,16.387241 c 1.7324571,0 3.1407476,1.278317 3.1407476,2.85022 0,1.572209 -1.4082905,2.850221 -3.1407476,2.850221 -1.7321513,0 -3.1407476,-1.278012 -3.1407476,-2.850221 0,-1.571903 1.4085963,-2.85022 3.1407476,-2.85022 z m 28.9884575,9.806655 c -0.273707,1.446517 -1.259357,2.714132 -2.704651,3.471336 -1.358442,0.713167 -3.028514,0.938861 -4.785741,1.16486 -0.959045,0.124162 -1.968549,0.260251 -2.941049,0.47524 -2.592111,0.577078 -5.084219,1.708298 -7.502013,2.793034 -3.090594,1.391776 -6.007788,2.703428 -8.710911,2.703428 -1.4085963,0 -2.6676477,-0.361782 -3.8633948,-1.119293 C 2.2022327,33.9635 2.3383216,30.740488 2.6634058,28.97592 c 0.2984781,-1.652027 1.1336662,-3.2013 1.9315445,-4.682681 0.04893,-0.09083 0.087158,-0.169729 0.1360889,-0.260556 0.2749301,0.09083 0.5614811,0.159025 0.8602651,0.204285 -0.4731,2.397612 0.8718862,4.874122 3.4893796,6.096171 l 0.4740175,0.225693 0.5104096,-0.169729 c 2.181397,-0.70124 4.2001,-1.843163 5.982405,-3.370111 1.009504,-0.859959 1.869769,-1.786893 2.592417,-2.793951 0.286551,0.04557 0.573408,0.05749 0.85996,0.05749 2.592416,0 4.772589,-1.617775 5.396152,-3.789386 h 2.093016 c 0.623563,2.182621 2.804654,3.789081 5.397071,3.789081 1.034581,0 1.993931,-0.259945 2.815663,-0.700935 0.325084,0.848033 0.424169,1.729706 0.249853,2.612601 z m 0,0"
     id="path1"
     style="fill:#ffffff;stroke-width:0.305818" />
  <text
     xml:space="preserve"
     style="font-style:normal;font-variant:normal;font-weight:bold;font-stretch:normal;font-size:35.9197px;font-family:Cantarell;-inkscape-font-specification:'Cantarell Bold';writing-mode:lr-tb;direction:ltr;fill:#ffffff;stroke:#000000;stroke-width:0.151124"
     x="45.069778"
     y="31.792006"
     id="text1"
     transform="scale(0.97537338,1.0252484)"><tspan
       sodipodi:role="line"
       id="tspan1"
       x="45.069778"
       y="31.792006"
       style="font-style:normal;font-variant:normal;font-weight:bold;font-stretch:normal;font-family:Cantarell;-inkscape-font-specification:'Cantarell Bold';stroke-width:0.151124">Jest</tspan></text>
</svg>
