<?xml version="1.0" encoding="UTF-8" standalone="no"?>
<svg
   width="127"
   height="40"
   viewBox="0 0 127 40"
   fill="none"
   version="1.1"
   id="svg8"
   sodipodi:docname="next.svg"
   inkscape:version="1.4.2 (unknown)"
   xmlns:inkscape="http://www.inkscape.org/namespaces/inkscape"
   xmlns:sodipodi="http://sodipodi.sourceforge.net/DTD/sodipodi-0.dtd"
   xmlns="http://www.w3.org/2000/svg"
   xmlns:svg="http://www.w3.org/2000/svg">
  <sodipodi:namedview
     id="namedview8"
     pagecolor="#505050"
     bordercolor="#eeeeee"
     borderopacity="1"
     inkscape:showpageshadow="0"
     inkscape:pageopacity="0"
     inkscape:pagecheckerboard="0"
     inkscape:deskcolor="#505050"
     inkscape:zoom="3.9636364"
     inkscape:cx="178.37156"
     inkscape:cy="19.931193"
     inkscape:window-width="1920"
     inkscape:window-height="1061"
     inkscape:window-x="1366"
     inkscape:window-y="0"
     inkscape:window-maximized="1"
     inkscape:current-layer="svg8" />
  <g
     clip-path="url(#clip0_328_444)"
     id="g8"
     transform="matrix(1.1609587,0,0,1.1609587,0,-3.2191742)">
    <path
       d="M 72.9395,9.00879 H 92.0511 V 12.5363 H 84.4697 V 31.094 h -3.791 V 12.5363 h -7.7392 z"
       fill="#f6f6f6"
       id="path1" />
    <path
       d="M 41.508,9.00879 V 12.5363 H 26.1888 v 5.6747 h 12.3197 v 3.5274 H 26.1888 v 5.8281 H 41.508 V 31.094 H 22.3981 V 12.5363 H 22.3965 V 9.00879 Z"
       fill="#f6f6f6"
       id="path2" />
    <path
       d="M 51.0512,9.01855 H 46.0903 L 63.8591,31.1038 h 4.9753 L 59.9489,20.0688 68.8202,9.0354 63.8591,9.04307 57.4652,16.9841 Z"
       fill="#f6f6f6"
       id="path3" />
    <path
       d="m 56.1419,24.794 -2.4844,-3.0889 -7.5813,9.4153 h 4.975 z"
       fill="#f6f6f6"
       id="path4" />
    <path
       fill-rule="evenodd"
       clip-rule="evenodd"
       d="M 22.5311,31.0944 4.73838,9 H 0 V 31.0852 H 3.79071 V 13.7207 L 17.769,31.0944 Z"
       fill="#f6f6f6"
       id="path5" />
    <path
       d="m 92.9035,30.9593 c -0.2777,0 -0.5138,-0.0961 -0.7116,-0.2885 -0.1977,-0.1923 -0.2954,-0.4252 -0.2929,-0.7011 -0.0025,-0.2683 0.0952,-0.4986 0.2929,-0.6909 0.1978,-0.1924 0.4339,-0.2886 0.7116,-0.2886 0.267,0 0.5007,0.0962 0.6984,0.2886 0.2005,0.1923 0.3005,0.4226 0.3033,0.6909 -0.0028,0.1822 -0.0491,0.3493 -0.1415,0.4986 -0.095,0.1519 -0.2156,0.2709 -0.3673,0.3569 -0.149,0.0886 -0.3133,0.1341 -0.4929,0.1341 z"
       fill="#f6f6f6"
       id="path6" />
    <path
       d="m 99.3735,21.6562 h 1.6795 v 6.4718 c -0.002,0.5947 -0.131,1.1035 -0.382,1.5312 -0.255,0.4277 -0.607,0.7542 -1.0586,0.9845 -0.4495,0.2278 -0.9761,0.3443 -1.5745,0.3443 -0.5472,0 -1.0376,-0.0988 -1.4743,-0.2911 -0.4367,-0.1924 -0.7834,-0.4809 -1.0376,-0.8605 -0.2571,-0.3797 -0.3829,-0.853 -0.3829,-1.4199 h 1.6826 c 0.0025,0.248 0.059,0.4631 0.1668,0.6428 0.1077,0.1797 0.2567,0.3164 0.4469,0.4126 0.1925,0.0962 0.4136,0.1443 0.6625,0.1443 0.2699,0 0.501,-0.0557 0.6884,-0.1696 0.1875,-0.1114 0.3314,-0.2784 0.4317,-0.5012 0.0975,-0.2201 0.149,-0.4935 0.1515,-0.8174 z"
       fill="#f6f6f6"
       id="path7" />
    <path
       d="m 107.964,24.1872 c -0.04,-0.3923 -0.22,-0.6985 -0.534,-0.9162 -0.316,-0.2202 -0.724,-0.329 -1.225,-0.329 -0.352,0 -0.655,0.0531 -0.906,0.1569 -0.252,0.1063 -0.447,0.248 -0.581,0.4277 -0.133,0.1797 -0.2,0.3847 -0.206,0.6151 0,0.1923 0.047,0.3594 0.137,0.4986 0.09,0.1417 0.21,0.2607 0.367,0.3568 0.154,0.0987 0.326,0.1797 0.514,0.2455 0.19,0.0658 0.38,0.1215 0.57,0.1671 l 0.876,0.2151 c 0.352,0.081 0.693,0.1899 1.019,0.329 0.326,0.1367 0.622,0.3114 0.881,0.5214 0.26,0.2101 0.465,0.4632 0.617,0.7593 0.151,0.2961 0.228,0.6429 0.228,1.0428 0,0.539 -0.138,1.0123 -0.418,1.4224 -0.28,0.4074 -0.684,0.7263 -1.213,0.9567 -0.526,0.2278 -1.163,0.3442 -1.913,0.3442 -0.724,0 -1.356,-0.1114 -1.888,-0.3341 -0.534,-0.2202 -0.95,-0.5442 -1.251,-0.9694 -0.3,-0.4252 -0.462,-0.944 -0.485,-1.554 h 1.664 c 0.023,0.3189 0.126,0.5847 0.301,0.7998 0.177,0.2126 0.408,0.3695 0.691,0.4758 0.285,0.1038 0.603,0.1569 0.955,0.1569 0.367,0 0.691,-0.0556 0.971,-0.1645 0.277,-0.1088 0.496,-0.2606 0.652,-0.4581 0.16,-0.1949 0.239,-0.4252 0.242,-0.6884 -0.003,-0.2404 -0.075,-0.4404 -0.214,-0.5973 -0.141,-0.1569 -0.336,-0.2885 -0.585,-0.3948 -0.252,-0.1063 -0.545,-0.2025 -0.879,-0.286 l -1.063,-0.2683 c -0.768,-0.1949 -1.377,-0.491 -1.821,-0.8884 -0.447,-0.3973 -0.668,-0.9238 -0.668,-1.5844 0,-0.5416 0.149,-1.0174 0.45,-1.4249 0.298,-0.4075 0.706,-0.7238 1.222,-0.9491 0.519,-0.2278 1.105,-0.3392 1.757,-0.3392 0.663,0 1.243,0.1114 1.744,0.3392 0.501,0.2253 0.894,0.5391 1.179,0.939 0.285,0.3999 0.434,0.858 0.442,1.3768 z"
       fill="#f6f6f6"
       id="path8" />
  </g>
  <defs
     id="defs8">
    <clipPath
       id="clip0_328_444">
      <rect
         width="109.722"
         height="22"
         fill="#ffffff"
         transform="translate(0,9)"
         id="rect8"
         x="0"
         y="0" />
    </clipPath>
  </defs>
</svg>
