<?xml version="1.0" encoding="UTF-8" standalone="no"?>
<svg
   fill="#ffffff"
   viewBox="0 0 180 40"
   version="1.1"
   id="svg1"
   sodipodi:docname="phoenix.svg"
   width="180"
   height="40"
   inkscape:version="1.4.2 (unknown)"
   xmlns:inkscape="http://www.inkscape.org/namespaces/inkscape"
   xmlns:sodipodi="http://sodipodi.sourceforge.net/DTD/sodipodi-0.dtd"
   xmlns="http://www.w3.org/2000/svg"
   xmlns:svg="http://www.w3.org/2000/svg">
  <defs
     id="defs1" />
  <sodipodi:namedview
     id="namedview1"
     pagecolor="#505050"
     bordercolor="#eeeeee"
     borderopacity="1"
     inkscape:showpageshadow="0"
     inkscape:pageopacity="0"
     inkscape:pagecheckerboard="0"
     inkscape:deskcolor="#505050"
     inkscape:zoom="4.7398251"
     inkscape:cx="135.44803"
     inkscape:cy="16.034347"
     inkscape:window-width="1920"
     inkscape:window-height="1061"
     inkscape:window-x="1366"
     inkscape:window-y="0"
     inkscape:window-maximized="1"
     inkscape:current-layer="svg1" />
  <g
     id="SVGRepo_bgCarrier"
     stroke-width="0" />
  <g
     id="SVGRepo_tracerCarrier"
     stroke-linecap="round"
     stroke-linejoin="round" />
  <g
     id="SVGRepo_iconCarrier"
     transform="matrix(1.7876521,0,0,1.9354398,-1.7876521,-11.612042)">
    <path
       d="M 6.6914062,6 C 4.7821152,6.0138906 2.6172656,6.5645937 1.1035156,7.6679688 1.0665156,7.6969687 1.033,7.7239531 1,7.7519531 c 0.005,0.009 0.00577,0.014438 0.00977,0.023437 0.038,0 0.073328,-0.00577 0.1113282,-0.00977 0.295,-0.047 0.5869531,-0.037328 0.8769531,0.013672 1.116,0.202 2.2351406,1.0829375 2.6191406,3.5859369 0.248,1.608 -0.033,2.38211 0.375,4.03711 0.891,3.614 4.2672813,5.044281 5.9882811,4.988281 0.178,-0.005 1.068218,-0.06652 1.199219,-0.103516 -0.113,-0.122 -2.043501,-0.04622 -3.1875001,-2.324218 -0.202,-0.403 -0.3527812,-0.825922 -0.3007813,-1.294922 0.136,-1.195 1.5424994,-1.406188 2.4374994,-0.867188 1.688,1.012 2.967078,4.280313 5.330078,4.570313 1.734,0.211 3.966266,-0.797906 5.072266,-2.128906 -0.028,-0.005 -0.03787,-0.0079 -0.04687,-0.0039 -0.019,0.005 -0.03873,0.0087 -0.05273,0.01367 -1.561,0.567 -4.420453,0.455641 -6.314453,-0.693359 -1.763,-1.069 -2.488735,-2.753047 -2.427735,-3.498047 0.084,-0.998 1.073594,-1.085969 1.683594,-0.917969 0.675,0.183 1.143266,0.824203 1.822265,1.283203 0.731001,0.487 1.543251,0.641422 2.40625,0.482422 0.698001,-0.127 1.611938,-0.576687 1.710938,-0.679687 -0.052,-0.005 -0.08419,-0.0038 -0.117188,-0.0078 -0.291,-0.028 -0.581187,-0.03708 -0.867187,-0.08008 -5.212,-0.773 -6.041937,-7.6702342 -11.8359371,-8.1152342 C 7.2325625,6.0055156 6.9641621,5.9980156 6.6914062,6 Z M 6.1855469,6.9746094 c -0.052,0.689 -1.04225,0.9983593 -1.65625,0.3183594 -0.043,-0.047 -0.042547,-0.05575 -0.060547,-0.09375 0.567,-0.122 1.1347969,-0.1916094 1.716797,-0.2246094 z M 13.492188,8.703125 c 0.046,0.052 0.07161,0.081375 0.09961,0.109375 0.703,0.736 1.503203,1.344594 2.408203,1.808594 1.083,0.549 2.218406,0.844656 3.441406,0.722656 0.417,-0.038 0.819219,-0.145984 1.199219,-0.333984 0.028,-0.014 0.05598,-0.03764 0.08398,-0.05664 -0.028,-0.014 -0.05131,-0.01867 -0.07031,-0.01367 -0.202,0.024 -0.397609,0.06108 -0.599609,0.08008 -0.609001,0.056 -1.185079,-0.03691 -1.705079,-0.378906 -0.844,-0.558 -1.430515,-1.1679688 -2.353515,-1.5429688 -1.111,-0.45 -2.147907,-0.3945312 -2.503906,-0.3945312 z m 1.748046,2.298828 c -0.052,0.068 0.0295,0.103531 0.0625,0.144531 2.18,2.609 5.938016,3.010922 8.291016,2.169922 1.767,-0.628 2.935922,0.358516 3.169922,1.353516 0.004,0.018 0.01248,0.04059 0.02148,0.05859 0.009,-0.005 0.0203,-0.0059 0.0293,-0.0059 0,-0.407 -0.07623,-0.871875 -0.240234,-1.296875 -0.277,-0.718 -0.748907,-1.270453 -1.503907,-1.564453 -1.181,-0.457 -2.348187,-0.08656 -3.117187,0.148438 -1.186,0.366 -2.316141,0.511328 -3.744141,0.236328 -1.032,-0.195 -1.978172,-0.579547 -2.826172,-1.185547 -0.043,-0.032 -0.137578,-0.06759 -0.142578,-0.05859 z m 8.480469,4.441406 c -0.295891,-0.01237 -0.610515,0.0045 -0.947265,0.05274 -1.419,0.206 -2.229141,0.848125 -3.244141,1.453125 -0.869,0.511 -1.390438,0.451437 -2.523438,0.273437 0,0.009 -0.0059,0.01248 -0.0059,0.02148 0.018,0.009 0.03092,0.0203 0.04492,0.0293 0.956,0.486999 1.774812,0.533999 3.007812,0.375 1.392,-0.183 2.046313,-0.680532 2.820313,-1.144532 0.933,-0.558 1.802187,-0.3935 3.117187,-0.1875 0.004,-0.009 0.0048,-0.0203 0.0098,-0.0293 -0.669,-0.50625 -1.391625,-0.806625 -2.279297,-0.84375 z m 1.888672,1.490235 c -1.475947,0.109799 -2.359125,1.001453 -3.15625,1.830078 -0.35,0.365 -0.695453,0.732219 -1.064453,1.074219 -0.701,0.656 -1.257672,0.707343 -1.388672,0.777343 v 0.01953 c 0.29,0.019 1.247656,-0.02427 2.097656,-0.197266 3.262,-0.671 3.327797,-3.010531 4.841797,-3.019531 0.351,0 0.690578,0.0273 1.017578,0.154297 0.009,0.005 0.01997,0 0.04297,0 -0.014,-0.019 -0.0192,-0.03202 -0.0332,-0.04102 -0.318,-0.211 -0.6085,-0.511703 -1.6875,-0.595703 -0.2365,-0.01875 -0.459072,-0.01764 -0.669922,-0.002 z m 2.283203,1.28125 c -0.571547,-0.05278 -1.116219,0.106437 -1.636719,0.429687 -0.014,0.01 -0.02864,0.02941 -0.05664,0.06641 0.337,0.024 0.849359,0.03853 1.318359,0.394531 0.567,0.432 0.903469,0.945906 1.480469,1.128906 0.938,0.296 1.837953,-0.103047 2.001953,-0.248047 -0.009,-0.019 -0.01453,-0.02253 -0.01953,-0.01953 -0.099,-0.028 -0.576031,-0.0052 -1.082031,-0.492188 -0.525001,-0.501 -0.839782,-0.937765 -1.425782,-1.134765 -0.19675,-0.06675 -0.389562,-0.107407 -0.580078,-0.125 z M 7.0195312,20 7,20.017578 c 0.085,0.145 0.6619063,0.833547 0.8789062,1.060547 1.489,1.571 3.8139378,2.83525 5.8359378,2.78125 1.474,-0.041 2.496109,-0.371297 3.662109,-0.279297 1.125,0.081 1.671438,0.353875 1.898438,0.421875 0.005,-0.009 0.01453,-0.01444 0.01953,-0.02344 -0.094,-0.132 -0.363563,-0.395328 -0.476563,-0.486328 -1.616,-1.278001 -3.35575,-0.588391 -4.59375,-1.150391 -0.548,-0.249 -0.571078,-0.580297 -0.330078,-0.779297 0.184,-0.159 0.258813,-0.185422 1.132813,-0.357422 -0.1,-0.154 -0.96411,-0.551859 -2.03711,-0.130859 -1.11,0.434 -2.238812,0.465437 -3.3828121,0.148437 C 8.2324219,20.842656 7.3315313,20.186 7.0195312,20 Z M 16.6875,24.050781 c -0.013,0 -0.02778,0.0086 -0.05078,0.01758 0.315,0.084 1.22375,0.234578 2.21875,1.392579 0.589,0.684999 1.291719,0.975015 2.136719,1.041015 0.005,-0.024 0.03359,-0.03775 -0.06641,-0.09375 -0.229,-0.131 -0.417453,-0.294531 -0.564453,-0.519531 -0.301,-0.464 -0.743437,-1.35625 -1.898437,-1.65625 -0.584,-0.15 -1.177391,-0.176641 -1.775391,-0.181641 z"
       id="path1" />
  </g>
  <text
     xml:space="preserve"
     style="font-style:normal;font-variant:normal;font-weight:bold;font-stretch:normal;font-size:31.5551px;font-family:'Nunito Sans';-inkscape-font-specification:'Nunito Sans Bold';writing-mode:lr-tb;direction:ltr;fill:#ffffff;stroke:#000000;stroke-width:0.132761"
     x="62.500942"
     y="31.138941"
     id="text1"><tspan
       sodipodi:role="line"
       id="tspan1"
       x="62.500942"
       y="31.138941"
       style="font-style:normal;font-variant:normal;font-weight:bold;font-stretch:normal;font-family:'Nunito Sans';-inkscape-font-specification:'Nunito Sans Bold';stroke-width:0.132761">Phoenix</tspan></text>
</svg>
