<?xml version="1.0" encoding="UTF-8" standalone="no"?>
<svg
   width="115"
   height="40"
   viewBox="0 0 115 40"
   version="1.1"
   preserveAspectRatio="xMidYMid"
   id="svg2"
   sodipodi:docname="rails.svg"
   inkscape:version="1.4.2 (unknown)"
   xmlns:inkscape="http://www.inkscape.org/namespaces/inkscape"
   xmlns:sodipodi="http://sodipodi.sourceforge.net/DTD/sodipodi-0.dtd"
   xmlns="http://www.w3.org/2000/svg"
   xmlns:svg="http://www.w3.org/2000/svg">
  <defs
     id="defs2" />
  <sodipodi:namedview
     id="namedview2"
     pagecolor="#353535"
     bordercolor="#999999"
     borderopacity="1"
     inkscape:showpageshadow="2"
     inkscape:pageopacity="0"
     inkscape:pagecheckerboard="0"
     inkscape:deskcolor="#d1d1d1"
     inkscape:zoom="4.6901066"
     inkscape:cx="75.691243"
     inkscape:cy="89.976633"
     inkscape:window-width="1920"
     inkscape:window-height="1061"
     inkscape:window-x="1366"
     inkscape:window-y="0"
     inkscape:window-maximized="1"
     inkscape:current-layer="g2" />
  <g
     fill="#cc0000"
     id="g2">
    <g
       id="g3"
       transform="matrix(0.23835241,0,0,0.23835241,-2.0557999,-0.24589431)">
      <path
         d="m 236.96839,121.33321 c 0,0 19.69888,-1.51583 19.69888,-24.354383 0,-22.838551 -23.86378,-24.960717 -23.86378,-24.960717 h -42.99985 v 72.05259 h 21.61249 v -17.38155 l 18.6858,17.38155 H 262.0704 Z M 228.63858,106.5791 H 211.41613 V 90.107047 h 17.33502 c 0,0 4.84029,1.61689 4.84029,8.1855 0,6.568613 -4.95286,8.286553 -4.95286,8.286553 z M 310.0231,72.523388 h -21.95018 c -15.64654,0 -20.9371,12.732999 -20.9371,18.796329 V 144.0707 H 289.086 v -12.63194 h 20.59941 V 144.0707 H 330.9602 V 91.319717 c 0,-15.360441 -15.53398,-18.796329 -20.9371,-18.796329 z m -0.33769,38.502162 H 288.97344 V 93.542937 c 0,0 0,-3.94117 6.86647,-3.94117 h 7.54185 c 6.07851,0 6.19108,3.94117 6.19108,3.94117 v 17.482613 z m 31.29307,-38.502162 h 22.85071 V 144.0707 h -22.85071 z m 54.93174,53.054152 V 72.523388 h -22.73814 v 53.054152 18.49316 h 22.73814 30.73026 v -18.49316 z m 38.27211,0.20211 v 18.29105 h 36.80877 c 7.54186,0 20.48684,-4.95172 20.9371,-18.79632 v -7.07389 c 0,-11.8235 -10.80625,-18.796333 -20.9371,-18.796333 H 452.643 v -8.48866 h 36.35851 V 72.523388 h -34.89517 c -9.0052,0 -21.04966,6.669665 -21.04966,19.099499 v 6.36649 c 0,12.429833 11.9319,18.796333 21.04966,18.796333 25.32714,0.10106 -6.07851,0 17.33502,0 v 8.89289 z"
         id="path1"
         style="fill:#f9f9f9;stroke-width:0.826994" />
    </g>
    <path
       d="M 2.1700006,40 H 26.660003 c 0,0 -4.681001,-19.798851 10.819003,-27.816092 3.379003,-1.522989 14.136004,-7.2126437 31.744008,4.856322 0.558,-0.431035 1.085,-0.775862 1.085,-0.775862 0,0 -16.120006,-14.9137934 -34.069007,-13.2471268 C 27.218005,3.7643677 16.120003,11.37931 9.6100019,21.436781 3.1000006,31.494254 2.1700006,40 2.1700006,40 Z M 53.196006,4.6264365 l 0.124,-1.9252871 c -0.279,-0.1436783 -1.053999,-0.4885057 -3.007,-1.0057471 l -0.124,1.8965515 c 1.023002,0.3160921 2.015001,0.6609196 3.007,1.0344827 z m -2.945,6.0919545 -0.124,1.810345 c 1.023002,0.02873 2.046001,0.143678 3.069,0.344827 l 0.124,-1.781609 c -1.053999,-0.20115 -2.077001,-0.316092 -3.069,-0.373563 z M 38.781005,1.7528733 h 0.31 L 38.471005,0 c -0.960999,0 -1.953001,0.05747101 -2.975997,0.1724136 l 0.588999,1.6954023 c 0.898997,-0.086207 1.797999,-0.1149426 2.696998,-0.1149426 z m 1.488001,10.5747127 0.713003,1.982759 c 0.898999,-0.402299 1.797998,-0.747127 2.697,-1.005747 L 42.99701,11.408046 c -1.054002,0.287356 -1.953001,0.603448 -2.728004,0.91954 z M 26.195003,4.7701148 24.800005,2.7873563 c -0.775002,0.3735631 -1.581002,0.7758619 -2.418001,1.2356322 l 1.425999,2.0114941 c 0.805999,-0.45977 1.580998,-0.8908047 2.387,-1.2643678 z m 6.355002,12.9310342 1.488001,2.068966 c 0.527003,-0.718391 1.147002,-1.379311 1.829002,-2.04023 l -1.395005,-1.954023 c -0.712999,0.603448 -1.364001,1.264368 -1.921998,1.925287 z m -4.494999,9.252874 2.511001,1.839081 c 0.123997,-1.12069 0.340999,-2.24138 0.650999,-3.362071 l -2.232001,-1.63793 c -0.402999,1.063217 -0.681999,2.126437 -0.929999,3.16092 z M 14.477003,13.304598 12.276002,11.522989 c -0.806,0.71839 -1.581,1.436781 -2.2940002,2.155172 l 2.3870012,1.896552 c 0.651,-0.775863 1.363999,-1.551725 2.108,-2.270115 z M 5.1150011,26.149425 1.5500003,24.94253 C 0.96100027,26.178163 0.31000001,27.614943 0,28.390805 l 3.5650008,1.206897 C 3.9680007,28.62069 4.6190007,27.212644 5.1150011,26.149425 Z m 22.4750039,8.103449 c 0.062,1.522989 0.216997,2.758622 0.372,3.620691 l 3.719998,1.23563 c -0.279,-1.12069 -0.558002,-2.385059 -0.744002,-3.735631 z"
       id="path2"
       style="fill:#f9f9f9;stroke-width:0.231426" />
  </g>
</svg>
