<?xml version="1.0" encoding="UTF-8" standalone="no"?>
<svg
   width="117"
   height="40"
   viewBox="0 0 117 40"
   fill="none"
   version="1.1"
   id="svg2"
   sodipodi:docname="react.svg"
   inkscape:version="1.4.2 (unknown)"
   xmlns:inkscape="http://www.inkscape.org/namespaces/inkscape"
   xmlns:sodipodi="http://sodipodi.sourceforge.net/DTD/sodipodi-0.dtd"
   xmlns="http://www.w3.org/2000/svg"
   xmlns:svg="http://www.w3.org/2000/svg">
  <sodipodi:namedview
     id="namedview2"
     pagecolor="#505050"
     bordercolor="#eeeeee"
     borderopacity="1"
     inkscape:showpageshadow="0"
     inkscape:pageopacity="0"
     inkscape:pagecheckerboard="0"
     inkscape:deskcolor="#505050"
     inkscape:zoom="5.5549289"
     inkscape:cx="56.346356"
     inkscape:cy="19.982254"
     inkscape:window-width="1920"
     inkscape:window-height="1061"
     inkscape:window-x="1366"
     inkscape:window-y="0"
     inkscape:window-maximized="1"
     inkscape:current-layer="svg2" />
  <g
     clip-path="url(#clip0_93_780)"
     id="g1"
     transform="matrix(1.1062238,0,0,1.1062238,-0.22902262,-2.4403914)">
    <path
       d="m 20.207,16.4349 c -0.4681,0 -0.9317,0.0922 -1.3642,0.2713 -0.4326,0.1792 -0.8256,0.4418 -1.1566,0.7728 -0.331,0.3311 -0.5936,0.7241 -0.7728,1.1566 -0.1792,0.4325 -0.2714,0.8961 -0.2714,1.3643 0,0.4681 0.0922,0.9317 0.2714,1.3642 0.1792,0.4326 0.4418,0.8256 0.7728,1.1566 0.331,0.331 0.724,0.5936 1.1566,0.7728 0.4325,0.1792 0.8961,0.2714 1.3642,0.2714 0.4682,0 0.9318,-0.0922 1.3643,-0.2714 0.4325,-0.1792 0.8255,-0.4418 1.1566,-0.7728 0.331,-0.331 0.5936,-0.724 0.7728,-1.1566 0.1791,-0.4325 0.2713,-0.8961 0.2713,-1.3642 0,-0.4682 -0.0922,-0.9318 -0.2713,-1.3643 -0.1792,-0.4325 -0.4418,-0.8255 -0.7728,-1.1566 -0.3311,-0.331 -0.7241,-0.5936 -1.1566,-0.7728 -0.4325,-0.1791 -0.8961,-0.2713 -1.3643,-0.2713 z m -9.9866,10.6566 -0.7867,-0.2 C 3.57036,25.4099 0.207031,22.8949 0.207031,19.9932 c 0,-2.9017 3.363329,-5.4167 9.226669,-6.8983 l 0.7867,-0.1984 0.2216,0.78 c 0.594,2.0462 1.3537,4.0406 2.2717,5.9634 l 0.1683,0.355 -0.1683,0.355 c -0.9195,1.9221 -1.6793,3.9166 -2.2717,5.9633 z M 9.0687,14.9165 c -4.45667,1.2517 -7.19167,3.1667 -7.19167,5.0767 0,1.9083 2.735,3.8233 7.19167,5.0767 0.54504,-1.7335 1.2031,-3.4293 1.97,-5.0767 -0.7678,-1.647 -1.42586,-3.3429 -1.97,-5.0767 z m 21.125,12.175 -0.2217,-0.7816 c -0.5933,-2.0461 -1.3537,-4.04 -2.2733,-5.9617 l -0.1683,-0.355 0.1683,-0.355 c 0.9193,-1.9224 1.6796,-3.9168 2.2733,-5.9633 l 0.2217,-0.78 0.7883,0.1983 c 5.8617,1.4817 9.225,3.9967 9.225,6.9 0,2.9033 -3.3633,5.4167 -9.225,6.8983 z m -0.8183,-7.0983 c 0.8,1.7317 1.4616,3.4333 1.97,5.0767 4.4583,-1.2534 7.1916,-3.1684 7.1916,-5.0767 0,-1.91 -2.735,-3.8233 -7.1916,-5.0767 -0.5443,1.7337 -1.2024,3.4296 -1.97,5.0767 z M 9.05703,14.9082 8.83536,14.1299 C 7.18703,8.31986 7.68703,4.15653 10.207,2.7032 12.6787,1.27653 16.647,2.96153 20.8054,7.22986 L 21.372,7.81153 20.8054,8.3932 c -1.4776,1.53601 -2.8276,3.1898 -4.0367,4.945 l -0.225,0.3217 -0.3917,0.0333 c -2.1268,0.1677 -4.2365,0.5077 -6.3083,1.0167 z M 12.217,3.8582 c -0.4466,0 -0.8416,0.09666 -1.175,0.28833 -1.65664,0.955 -1.94997,4.275 -0.8083,8.75497 1.7761,-0.3951 3.576,-0.674 5.3883,-0.835 1.0457,-1.4868 2.1882,-2.90323 3.42,-4.23997 C 16.442,5.29486 13.9804,3.8582 12.217,3.8582 Z m 15.9817,33.9367 c -0.0017,0 -0.0017,0 0,0 -2.375,0 -5.425,-1.7884 -8.59,-5.0384 l -0.5667,-0.5816 0.5667,-0.5817 c 1.4772,-1.5365 2.8267,-3.1909 4.035,-4.9467 l 0.225,-0.3216 0.39,-0.0334 c 2.1279,-0.1667 4.2388,-0.5062 6.3117,-1.015 l 0.7866,-0.1983 0.2234,0.78 c 1.645,5.8067 1.1466,9.9717 -1.3734,11.4233 -0.6121,0.3461 -1.3052,0.5233 -2.0083,0.5134 z m -6.8267,-5.635 c 2.6,2.5316 5.0617,3.9683 6.825,3.9683 0.445,0 0.8434,-0.0967 1.175,-0.2883 1.6567,-0.955 1.9517,-4.2767 0.8084,-8.7567 -1.7766,0.3957 -3.5771,0.6746 -5.39,0.835 -1.0445,1.4879 -2.1864,2.9049 -3.4184,4.2417 z m 9.985,-17.2517 -0.7866,-0.1983 c -2.0727,-0.5105 -4.1836,-0.8505 -6.3117,-1.0167 l -0.39,-0.0333 -0.225,-0.3217 C 22.436,11.5825 21.0865,9.92859 19.6087,8.3932 L 19.042,7.81153 19.6087,7.22986 C 23.7654,2.9632 27.732,1.2782 30.207,2.7032 c 2.52,1.45333 3.02,5.61666 1.3734,11.425 z m -6.5666,-2.8417 c 1.9033,0.1734 3.7116,0.455 5.39,0.835 1.1433,-4.47997 0.8483,-7.79997 -0.8084,-8.75497 -1.6466,-0.95167 -4.7416,0.50667 -8,3.68 1.2313,1.3368 2.3732,2.75317 3.4184,4.23997 z M 12.217,37.7949 c -0.7036,0.0102 -1.3974,-0.167 -2.01,-0.5134 C 7.68703,35.8299 7.18703,31.6665 8.83536,25.8582 l 0.22,-0.78 0.78667,0.1983 c 1.92497,0.485 4.04837,0.8267 6.30837,1.015 l 0.3916,0.0334 0.2234,0.3216 c 1.2092,1.7556 2.5592,3.4099 4.0366,4.9467 l 0.5667,0.5817 -0.5667,0.5816 c -3.1633,3.25 -6.2133,5.0384 -8.585,5.0384 z M 10.2337,27.0832 c -1.14334,4.48 -0.84834,7.8017 0.8083,8.7567 1.645,0.9383 4.7384,-0.5084 8,-3.68 -1.2313,-1.3378 -2.3737,-2.7547 -3.42,-4.2417 -1.8124,-0.1603 -3.6124,-0.4392 -5.3883,-0.835 z m 9.9733,1.0467 c -1.3716,0 -2.7816,-0.06 -4.1933,-0.1767 L 15.622,27.9199 15.397,27.5982 c -0.7985,-1.1473 -1.5491,-2.3272 -2.25,-3.5367 -0.6988,-1.2104 -1.3471,-2.4492 -1.9433,-3.7133 l -0.165,-0.355 0.165,-0.355 c 0.5961,-1.2641 1.2444,-2.503 1.9433,-3.7133 0.69,-1.1934 1.4484,-2.3834 2.25,-3.5367 l 0.225,-0.3217 0.3917,-0.0333 c 2.7911,-0.2367 5.5972,-0.2367 8.3883,0 l 0.39,0.0333 0.2234,0.3217 c 1.5986,2.2951 3.0018,4.7203 4.195,7.25 l 0.1683,0.355 -0.1683,0.355 c -1.1903,2.5312 -2.5937,4.9566 -4.195,7.25 l -0.2234,0.3217 -0.39,0.0333 c -1.4116,0.1167 -2.8233,0.1767 -4.195,0.1767 z m -3.6616,-1.8067 c 2.4666,0.185 4.8566,0.185 7.325,0 1.378,-2.0146 2.6015,-4.1306 3.66,-6.33 -1.0566,-2.2007 -2.2808,-4.3169 -3.6617,-6.33 -2.4376,-0.185 -4.8857,-0.185 -7.3233,0 -1.3816,2.0127 -2.6058,4.129 -3.6617,6.33 1.0596,2.1991 2.2836,4.3151 3.6617,6.33 z"
       fill="#fcfcfc"
       id="path1" />
  </g>
  <defs
     id="defs2">
    <clipPath
       id="clip0_93_780">
      <rect
         width="40"
         height="40"
         fill="#ffffff"
         transform="translate(0.207031)"
         id="rect2"
         x="0"
         y="0" />
    </clipPath>
  </defs>
  <text
     xml:space="preserve"
     style="font-weight:bold;font-size:23.9093px;font-family:'Nunito Sans';-inkscape-font-specification:'Nunito Sans Bold';letter-spacing:0.885209px;writing-mode:lr-tb;direction:ltr;fill:#ffffff;stroke:#000000;stroke-width:0.100593"
     x="51.741371"
     y="28.18329"
     id="text1"
     transform="scale(0.99148984,1.0085832)"><tspan
       sodipodi:role="line"
       id="tspan1"
       x="51.741371"
       y="28.18329"
       style="stroke-width:0.100593">React</tspan></text>
</svg>
