<?xml version="1.0" encoding="UTF-8" standalone="no"?>
<svg
   fill="none"
   height="40"
   width="190"
   viewBox="670.088 32.462265 169.03712 53.197112"
   version="1.1"
   id="svg2"
   sodipodi:docname="react-native.svg"
   inkscape:version="1.4.2 (unknown)"
   xmlns:inkscape="http://www.inkscape.org/namespaces/inkscape"
   xmlns:sodipodi="http://sodipodi.sourceforge.net/DTD/sodipodi-0.dtd"
   xmlns="http://www.w3.org/2000/svg"
   xmlns:svg="http://www.w3.org/2000/svg">
  <defs
     id="defs2" />
  <sodipodi:namedview
     id="namedview2"
     pagecolor="#333333"
     bordercolor="#999999"
     borderopacity="1"
     inkscape:showpageshadow="2"
     inkscape:pageopacity="0"
     inkscape:pagecheckerboard="0"
     inkscape:deskcolor="#d1d1d1"
     inkscape:zoom="5.4336"
     inkscape:cx="129.56419"
     inkscape:cy="14.723204"
     inkscape:window-width="1920"
     inkscape:window-height="1061"
     inkscape:window-x="1366"
     inkscape:window-y="0"
     inkscape:window-maximized="1"
     inkscape:current-layer="g2" />
  <g
     fill="#61dafb"
     id="g2">
    <g
       id="g1"
       transform="matrix(1.1937912,0,0,1.1937912,-122.39182,-6.2909022)">
      <path
         d="m 683.3487,54.532 c 0,-3.282639 -4.29586,-6.393605 -10.88228,-8.322809 1.51998,-6.423981 0.84447,-11.534883 -2.13225,-13.171187 -0.68612,-0.383825 -1.48812,-0.565642 -2.36423,-0.565642 v 2.25245 c 0.48551,0 0.87611,0.0909 1.20323,0.262604 1.43551,0.787844 2.05838,3.787729 1.57264,7.646154 -0.11584,0.949464 -0.30589,1.949416 -0.53815,2.969577 -2.06897,-0.484837 -4.32769,-0.858535 -6.70254,-1.100956 -1.42486,-1.868621 -2.90261,-3.565525 -4.39099,-5.050302 3.44099,-3.060485 6.67094,-4.737196 8.86645,-4.737196 v -2.252428 c -2.90287,0 -6.70258,1.979727 -10.54455,5.413917 -3.84223,-3.414 -7.64195,-5.37351 -10.54455,-5.37351 v 2.252427 c 2.18488,0 5.42521,1.666614 8.86618,4.706885 -1.47774,1.484802 -2.95548,3.171586 -4.35933,5.040207 -2.38549,0.242421 -4.64422,0.616119 -6.71296,1.111056 -0.24287,-1.010049 -0.42225,-1.989826 -0.54898,-2.929179 -0.49587,-3.858419 0.11614,-6.858303 1.54123,-7.656246 0.31652,-0.181816 0.72813,-0.262603 1.21386,-0.262603 v -2.25245 c -0.88675,0 -1.68896,0.181816 -2.38549,0.56564 -2.96608,1.636284 -3.63098,6.737093 -2.10057,13.140876 -6.56525,1.939325 -10.84007,5.040237 -10.84007,8.312715 0,3.282855 4.29592,6.393848 10.88231,8.32291 -1.51998,6.424123 -0.8445,11.534867 2.13222,13.171219 0.68612,0.383737 1.4881,0.56555 2.37485,0.56555 2.90261,0 6.70258,-1.979659 10.54455,-5.41385 3.84197,3.414091 7.64192,5.373645 10.54456,5.373645 0.88648,0 1.68874,-0.181816 2.38545,-0.565776 2.96585,-1.63635 3.63098,-6.737157 2.10038,-13.140728 6.54418,-1.929289 10.81903,-5.040274 10.81903,-8.31297 z m -13.74264,-6.737027 c -0.39063,1.303071 -0.8761,2.646258 -1.42512,3.989666 -0.43262,-0.807901 -0.88649,-1.616025 -1.38262,-2.424149 -0.48551,-0.807965 -1.00284,-1.595809 -1.51999,-2.363455 1.49877,0.212101 2.94486,0.474731 4.32773,0.797938 z m -4.83446,10.757094 c -0.82322,1.363733 -1.6675,2.65655 -2.54361,3.858577 -1.57286,0.131217 -3.16648,0.201924 -4.77094,0.201924 -1.59389,0 -3.18772,-0.0707 -4.74973,-0.191989 -0.87614,-1.202016 -1.73123,-2.484672 -2.55447,-3.838252 -0.80225,-1.323084 -1.53038,-2.666495 -2.19551,-4.019845 0.65452,-1.353569 1.39326,-2.707147 2.18511,-4.030231 0.82325,-1.363515 1.6675,-2.656466 2.5436,-3.858445 1.57287,-0.131314 3.16652,-0.202012 4.771,-0.202012 1.59382,0 3.1877,0.0707 4.74971,0.191918 0.87611,1.201978 1.7312,2.4847 2.55446,3.838273 0.80223,1.323085 1.53036,2.666496 2.19547,4.020072 -0.66511,1.353346 -1.39324,2.706921 -2.18509,4.03001 z m 3.40934,-1.312924 a 45.272763,43.323291 0 0 1 1.45673,4.019845 c -1.38283,0.323208 -2.83935,0.596039 -4.3487,0.808124 0.5171,-0.777631 1.03426,-1.575591 1.51999,-2.393881 0.48549,-0.807904 0.93936,-1.626187 1.37198,-2.434088 z m -10.70289,10.777336 c -0.98164,-0.969837 -1.96325,-2.050581 -2.93425,-3.232274 0.95,0.04042 1.921,0.0707 2.90261,0.0707 0.99223,0 1.97387,-0.02009 2.93446,-0.0707 a 41.221314,39.446304 0 0 1 -2.90282,3.232274 z m -7.85294,-5.949367 c -1.49875,-0.212085 -2.94487,-0.474759 -4.3275,-0.797961 0.39038,-1.302978 0.87614,-2.646395 1.42489,-3.989803 0.43284,0.808124 0.88671,1.616247 1.38262,2.424142 0.49612,0.808126 1.00284,1.595925 1.51999,2.363622 z m 7.80028,-21.019327 c 0.98164,0.969641 1.96325,2.050423 2.93425,3.232181 -0.95,-0.0404 -1.921,-0.07068 -2.90259,-0.07068 -0.99225,0 -1.97389,0.02018 -2.93425,0.07068 a 41.216618,39.441807 0 0 1 2.90259,-3.232181 z m -7.81092,5.94925 c -0.5171,0.777749 -1.03426,1.575688 -1.51975,2.393716 -0.48551,0.808126 -0.93938,1.616266 -1.37222,2.42416 a 45.192581,43.246567 0 0 1 -1.4565,-4.019938 c 1.38262,-0.31311 2.83912,-0.585837 4.34847,-0.797938 z m -9.5523,12.645933 c -3.73644,-1.525227 -6.15358,-3.524994 -6.15358,-5.110968 0,-1.585765 2.41714,-3.595687 6.15358,-5.110751 0.90775,-0.373796 1.89999,-0.707119 2.92384,-1.020224 0.60162,1.979679 1.39325,4.040189 2.37485,6.151295 -0.97097,2.100949 -1.75221,4.1513 -2.34321,6.121014 -1.04489,-0.313269 -2.03713,-0.656576 -2.95548,-1.030366 z m 5.67869,14.433764 c -1.43549,-0.787797 -2.05834,-3.78766 -1.5726,-7.646245 0.11613,-0.949281 0.3059,-1.949385 0.53812,-2.969602 2.06897,0.484928 4.32772,0.858724 6.70259,1.101072 1.42485,1.86853 2.90259,3.565417 4.39095,5.05022 -3.44097,3.060611 -6.67094,4.737171 -8.86642,4.737171 -0.47487,-0.01 -0.87588,-0.10096 -1.19264,-0.272616 z m 25.03683,-7.696602 c 0.49587,3.85835 -0.11614,6.858214 -1.54126,7.656173 -0.31649,0.181824 -0.7281,0.262671 -1.21387,0.262671 -2.18482,0 -5.4252,-1.666611 -8.86618,-4.706902 1.47775,-1.484805 2.95549,-3.171518 4.35934,-5.040278 2.38549,-0.242354 4.64421,-0.616144 6.71296,-1.111007 0.24285,1.02021 0.43287,1.999986 0.54901,2.939343 z m 4.06358,-6.737162 c -0.90775,0.37379 -1.89998,0.707161 -2.92387,1.020206 -0.60159,-1.979661 -1.39321,-4.040172 -2.37485,-6.151279 0.97123,-2.100943 1.75226,-4.151297 2.34325,-6.120995 1.04511,0.313138 2.03708,0.656553 2.96608,1.030349 3.73646,1.525003 6.15357,3.524986 6.15357,5.110751 -0.01,1.585974 -2.4277,3.5959 -6.16418,5.110968 z"
         id="path1"
         style="fill:#ffffff;stroke-width:0.0230869;stroke-dasharray:none" />
      <rect
         style="fill:#ffffff;fill-opacity:1;stroke-width:0.380409"
         id="rect3"
         width="9.9994545"
         height="9.4929752"
         x="652.12518"
         y="50.084984"
         ry="4.7464871"
         rx="4.7400007" />
    </g>
    <text
       xml:space="preserve"
       style="font-style:normal;font-variant:normal;font-weight:normal;font-stretch:normal;font-size:29.4985px;font-family:Poppins;-inkscape-font-specification:Poppins;writing-mode:lr-tb;direction:ltr;fill:#ffffff;fill-opacity:1;stroke-width:0.173673;stroke-dasharray:none"
       x="722.05585"
       y="68.531563"
       id="text3"
       transform="scale(0.97165385,1.0291731)"><tspan
         sodipodi:role="line"
         id="tspan3"
         style="font-style:normal;font-variant:normal;font-weight:normal;font-stretch:normal;font-family:Poppins;-inkscape-font-specification:Poppins;fill:#ffffff;stroke-width:0.173673"
         x="722.05585"
         y="68.531563">React Native</tspan></text>
  </g>
</svg>
