<?xml version="1.0" encoding="UTF-8" standalone="no"?>
<svg
   width="213"
   height="40"
   viewBox="0 0 213 40"
   fill="none"
   version="1.1"
   id="svg3"
   sodipodi:docname="tailwind.svg"
   inkscape:version="1.4.2 (unknown)"
   xmlns:inkscape="http://www.inkscape.org/namespaces/inkscape"
   xmlns:sodipodi="http://sodipodi.sourceforge.net/DTD/sodipodi-0.dtd"
   xmlns="http://www.w3.org/2000/svg"
   xmlns:svg="http://www.w3.org/2000/svg">
  <sodipodi:namedview
     id="namedview3"
     pagecolor="#505050"
     bordercolor="#eeeeee"
     borderopacity="1"
     inkscape:showpageshadow="0"
     inkscape:pageopacity="0"
     inkscape:pagecheckerboard="0"
     inkscape:deskcolor="#505050"
     inkscape:zoom="4.4004975"
     inkscape:cx="244.85868"
     inkscape:cy="17.043527"
     inkscape:window-width="1920"
     inkscape:window-height="1061"
     inkscape:window-x="1366"
     inkscape:window-y="0"
     inkscape:window-maximized="1"
     inkscape:current-layer="svg3" />
  <g
     clip-path="url(#clip0_93_873)"
     id="g3"
     transform="matrix(1.2146222,0,0,1.2146222,-0.17018875,-0.1073111)">
    <mask
       id="mask0_93_873"
       maskUnits="userSpaceOnUse"
       x="0"
       y="0"
       width="55"
       height="33">
      <path
         d="M 0.792969,0.5 H 54.793 V 32.9 H 0.792969 Z"
         fill="#ffffff"
         id="path1" />
    </mask>
    <g
       mask="url(#mask0_93_873)"
       id="g2">
      <path
         fill-rule="evenodd"
         clip-rule="evenodd"
         d="m 27.793,0.5 c -7.2,0 -11.7,3.6 -13.5,10.8 2.7,-3.6 5.85,-4.95 9.45,-4.05 2.054,0.513 3.522,2.004 5.147,3.653 2.647,2.687 5.711,5.797 12.403,5.797 7.2,0 11.7,-3.6 13.5,-10.8 -2.7,3.6 -5.85,4.95 -9.45,4.05 C 43.289,9.437 41.821,7.946 40.196,6.297 37.549,3.61 34.485,0.5 27.793,0.5 Z m -13.5,16.2 C 7.09297,16.7 2.59297,20.3 0.792969,27.5 3.49297,23.9 6.64297,22.55 10.243,23.45 c 2.054,0.514 3.522,2.004 5.147,3.653 2.647,2.687 5.711,5.797 12.403,5.797 7.2,0 11.7,-3.6 13.5,-10.8 -2.7,3.6 -5.85,4.95 -9.45,4.05 C 29.789,25.637 28.321,24.146 26.696,22.497 24.049,19.81 20.985,16.7 14.293,16.7 Z"
         fill="#fcfcfc"
         id="path2" />
    </g>
  </g>
  <defs
     id="defs3">
    <clipPath
       id="clip0_93_873">
      <rect
         width="54"
         height="33"
         fill="#ffffff"
         transform="translate(0.792969,0.5)"
         id="rect3"
         x="0"
         y="0" />
    </clipPath>
  </defs>
  <text
     xml:space="preserve"
     style="font-weight:bold;font-size:22.0608px;font-family:Cantarell;-inkscape-font-specification:'Cantarell Bold';letter-spacing:0.816776px;writing-mode:lr-tb;direction:ltr;fill:#ffffff;stroke:#000000;stroke-width:0.0928157"
     x="74.035507"
     y="27.013741"
     id="text1"><tspan
       sodipodi:role="line"
       id="tspan1"
       x="74.035507"
       y="27.013741"
       style="stroke-width:0.0928157">Tailwind CSS</tspan></text>
</svg>
