<?xml version="1.0" encoding="UTF-8" standalone="no"?>
<svg
   width="198"
   height="40"
   viewBox="0 0 198 40"
   fill="none"
   version="1.1"
   id="svg2"
   sodipodi:docname="typescript.svg"
   inkscape:version="1.4.2 (unknown)"
   xmlns:inkscape="http://www.inkscape.org/namespaces/inkscape"
   xmlns:sodipodi="http://sodipodi.sourceforge.net/DTD/sodipodi-0.dtd"
   xmlns="http://www.w3.org/2000/svg"
   xmlns:svg="http://www.w3.org/2000/svg">
  <sodipodi:namedview
     id="namedview2"
     pagecolor="#505050"
     bordercolor="#eeeeee"
     borderopacity="1"
     inkscape:showpageshadow="0"
     inkscape:pageopacity="0"
     inkscape:pagecheckerboard="0"
     inkscape:deskcolor="#505050"
     inkscape:zoom="3.7369522"
     inkscape:cx="97.940776"
     inkscape:cy="19.802233"
     inkscape:window-width="1920"
     inkscape:window-height="1061"
     inkscape:window-x="1366"
     inkscape:window-y="0"
     inkscape:window-maximized="1"
     inkscape:current-layer="svg2" />
  <g
     clip-path="url(#clip0_93_1629)"
     id="g1">
    <path
       fill-rule="evenodd"
       clip-rule="evenodd"
       d="M 1.66789,0.741211 H 37.7024 c 0.8069,0 1.4609,0.646699 1.4609,1.444449 V 37.8153 c 0,0.7978 -0.654,1.4444 -1.4609,1.4444 H 1.66789 c -0.80681,0 -1.460859,-0.6466 -1.460859,-1.4444 V 2.18566 c 0,-0.79775 0.654049,-1.444449 1.460859,-1.444449 z M 21.8626,21.2337 V 18.0745 H 7.99828 v 3.1592 h 4.94982 v 14.066 h 3.9404 v -14.066 z m 1.5709,13.6946 c 0.6355,0.3203 1.387,0.5606 2.2546,0.7208 0.8677,0.1601 1.782,0.2403 2.7434,0.2403 0.9369,0 1.8268,-0.0882 2.67,-0.2643 0.8432,-0.1762 1.5824,-0.4666 2.2178,-0.871 0.6354,-0.4044 1.1385,-0.9329 1.5092,-1.5856 0.3707,-0.6528 0.556,-1.4596 0.556,-2.4206 0,-0.6968 -0.1059,-1.3073 -0.3178,-1.8319 -0.2117,-0.5246 -0.5172,-0.9911 -0.9164,-1.3995 -0.3991,-0.4085 -0.8778,-0.7748 -1.4359,-1.0991 -0.558,-0.3243 -1.1872,-0.6307 -1.8878,-0.919 -0.5133,-0.2083 -0.9736,-0.4105 -1.3809,-0.6067 -0.4074,-0.1961 -0.7536,-0.3964 -1.0387,-0.6006 -0.2852,-0.2043 -0.505,-0.4204 -0.6598,-0.6487 -0.1548,-0.2282 -0.2322,-0.4865 -0.2322,-0.7748 0,-0.2643 0.0692,-0.5025 0.2077,-0.7147 0.1386,-0.2123 0.334,-0.3945 0.5866,-0.5467 0.2525,-0.1521 0.562,-0.2702 0.9287,-0.3543 0.3665,-0.084 0.7739,-0.1261 1.2219,-0.1261 0.3259,0 0.6701,0.024 1.0326,0.072 0.3625,0.0482 0.7271,0.1222 1.0936,0.2222 0.3667,0.1002 0.7232,0.2262 1.0694,0.3785 0.3462,0.1522 0.6659,0.3283 0.9592,0.5285 v -3.5917 c -0.5948,-0.2243 -1.2444,-0.3905 -1.9492,-0.4985 -0.7045,-0.1082 -1.5131,-0.1623 -2.4256,-0.1623 -0.9286,0 -1.8084,0.0981 -2.6394,0.2944 -0.831,0.1962 -1.5621,0.5025 -2.1935,0.919 -0.6314,0.4164 -1.1303,0.9469 -1.4969,1.5915 -0.3666,0.6448 -0.5499,1.4156 -0.5499,2.3125 0,1.1453 0.336,2.1223 1.0082,2.9311 0.6721,0.8089 1.6924,1.4936 3.061,2.0542 0.5378,0.2163 1.0387,0.4285 1.5031,0.6368 0.4643,0.2081 0.8655,0.4244 1.2036,0.6485 0.338,0.2243 0.6049,0.4685 0.8004,0.7328 0.1956,0.2643 0.2933,0.5646 0.2933,0.901 0,0.2483 -0.0611,0.4785 -0.1834,0.6907 -0.1222,0.2123 -0.3075,0.3964 -0.556,0.5526 -0.2484,0.1561 -0.5579,0.2784 -0.9286,0.3664 -0.3706,0.0881 -0.8045,0.1321 -1.3014,0.1321 -0.8473,0 -1.6864,-0.1461 -2.5174,-0.4384 -0.8308,-0.2923 -1.6007,-0.7308 -2.3095,-1.3154 z"
       fill="#fcfcfc"
       id="path1" />
  </g>
  <defs
     id="defs2">
    <clipPath
       id="clip0_93_1629">
      <rect
         width="40"
         height="38.518501"
         fill="#ffffff"
         transform="translate(0.207031,0.741211)"
         id="rect2"
         x="0"
         y="0" />
    </clipPath>
  </defs>
  <text
     xml:space="preserve"
     style="font-style:normal;font-variant:normal;font-weight:bold;font-stretch:normal;font-size:29.4921px;font-family:'Nunito Sans';-inkscape-font-specification:'Nunito Sans Bold';letter-spacing:1.09192px;writing-mode:lr-tb;direction:ltr;fill:#ffffff;stroke:#000000;stroke-width:0.124081"
     x="46.551716"
     y="27.903872"
     id="text2"><tspan
       sodipodi:role="line"
       id="tspan2"
       x="46.551716"
       y="27.903872"
       style="stroke-width:0.124081">Typescript</tspan></text>
</svg>
