<?xml version="1.0" encoding="UTF-8" standalone="no"?>
<svg
   fill="none"
   viewBox="0 0 165 40"
   id="Vitest--Streamline-Svg-Logos"
   height="40"
   width="165"
   version="1.1"
   xmlns="http://www.w3.org/2000/svg"
   xmlns:svg="http://www.w3.org/2000/svg">
  <defs
     id="defs3" />
  <desc
     id="desc1">
    Vitest Streamline Icon: https://streamlinehq.com
  </desc>
  <path
     fill="#fcc72b"
     d="m 31.552322,12.818307 -9.971831,14.417911 c -0.105699,0.152861 -0.258613,0.2674 -0.435489,0.326151 -0.176876,0.05879 -0.368085,0.05822 -0.544606,-7.99e-4 -0.176485,-0.05932 -0.32868,-0.174426 -0.433492,-0.327571 -0.104776,-0.15341 -0.156464,-0.336623 -0.147092,-0.521797 l 0.399049,-7.960167 -6.442834,-1.366417 c -0.137693,-0.02915 -0.265979,-0.09172 -0.373542,-0.182068 -0.107519,-0.09035 -0.190987,-0.205764 -0.242994,-0.335958 -0.05196,-0.130238 -0.07087,-0.271215 -0.05502,-0.410551 0.01584,-0.13929 0.0659,-0.272635 0.145814,-0.388141 l 9.97196,-14.4179696 c 0.105753,-0.1529528 0.258614,-0.2674393 0.435489,-0.3261331 0.176912,-0.058689 0.368129,-0.058388 0.54465,9.096e-4 0.176521,0.059275 0.328725,0.1742844 0.433493,0.3275931 0.104776,0.1532865 0.156463,0.3364813 0.147091,0.5218015 l -0.399102,7.9602925 6.44279,1.366239 c 0.137684,0.0292 0.265979,0.09172 0.373631,0.182068 0.107617,0.09039 0.190943,0.205763 0.242816,0.336002 0.05213,0.130194 0.07091,0.271215 0.0552,0.410506 -0.0158,0.139335 -0.06598,0.272547 -0.145992,0.388098 z"
     stroke-width="0.443743"
     id="path1"
     style="fill:#ffffff" />
  <path
     fill="#729b1b"
     d="m 21.109769,39.332468 c -0.265225,2.66e-4 -0.527877,-0.05162 -0.772911,-0.15318 -0.245035,-0.101529 -0.467616,-0.250537 -0.654876,-0.438196 l -9.4223,-9.42159 C 9.8827668,28.940634 9.6715009,28.427667 9.6721665,27.893179 c 7.1e-4,-0.534488 0.2133515,-1.047188 0.5913315,-1.424946 0.377936,-0.378025 0.890414,-0.590799 1.424902,-0.591598 0.534577,-5.77e-4 1.047588,0.210556 1.426589,0.587471 l 7.99478,7.993892 17.416769,-17.415882 c 0.379666,-0.373587 0.891524,-0.581968 1.424104,-0.579794 0.532846,0.0022 1.043017,0.214727 1.4194,0.591332 0.376648,0.376648 0.589423,0.886864 0.591642,1.419488 0.002,0.532625 -0.206429,1.044571 -0.580061,1.424237 L 22.537245,38.741092 c -0.18726,0.187925 -0.409797,0.336667 -0.654743,0.438196 -0.244946,0.101564 -0.507553,0.153446 -0.772733,0.15318 z"
     stroke-width="0.443743"
     id="path2"
     style="fill:#ffffff" />
  <path
     fill="#729b1b"
     fill-opacity="0.5"
     d="m 21.101781,39.332468 c 0.265225,2.66e-4 0.527921,-0.05162 0.772956,-0.15318 0.245035,-0.101529 0.467572,-0.250537 0.654875,-0.438196 l 9.422256,-9.42159 c 0.37696,-0.378868 0.588314,-0.891835 0.587471,-1.426323 -5.32e-4,-0.534488 -0.213307,-1.047188 -0.591331,-1.424946 -0.378025,-0.378025 -0.890459,-0.590799 -1.424947,-0.591598 -0.534488,-5.77e-4 -1.047455,0.210556 -1.426589,0.587471 L 21.101781,34.457998 3.685083,17.042116 C 3.3053945,16.668529 2.7934752,16.460148 2.2608596,16.462322 c -0.5326421,0.0022 -1.0428531,0.214727 -1.41947531,0.591332 -0.37663553,0.376648 -0.58918386,0.886864 -0.59136708,1.419488 -0.002153,0.532625 0.20623388,1.044571 0.57978983,1.424237 L 19.674305,38.741092 c 0.187304,0.187925 0.409797,0.336667 0.654743,0.438196 0.24499,0.101564 0.507597,0.153446 0.772733,0.15318 z"
     stroke-width="0.443743"
     id="path3"
     style="fill:#ffffff" />
  <text
     xml:space="preserve"
     style="font-style:normal;font-variant:normal;font-weight:normal;font-stretch:normal;font-size:42.254px;font-family:Sans;-inkscape-font-specification:Sans;writing-mode:lr-tb;direction:ltr;fill:#ffffff;stroke:#000000;stroke-width:0.177774"
     x="45.013878"
     y="34.921383"
     id="text3"><tspan
       id="tspan3"
       x="45.013878"
       y="34.921383"
       style="font-style:normal;font-variant:normal;font-weight:normal;font-stretch:normal;font-family:Sans;-inkscape-font-specification:Sans;stroke-width:0.177774">Vitest</tspan></text>
</svg>
