<svg xmlns="http://www.w3.org/2000/svg" version="1.1" xmlns:xlink="http://www.w3.org/1999/xlink" xmlns:svgjs="http://svgjs.dev/svgjs" width="1440" height="560" preserveAspectRatio="none" viewBox="0 0 1440 560"><g mask="url(&quot;#SvgjsMask1008&quot;)" fill="none"><rect width="1440" height="560" x="0" y="0" fill="rgba(18, 24, 39, 1)"></rect><path d="M108.67 553.35 a41.61 41.61 0 1 0 83.22 0 a41.61 41.61 0 1 0 -83.22 0z" stroke="rgba(163, 212, 59, 1)"></path><path d="M1237.97 485.84a32.87 32.87 0 1 0-10.98 64.82z" fill="rgba(0, 221, 153, 1)"></path><path d="M503.63 506.48a47.99 47.99 0 1 0-39.91-87.29z" stroke="rgba(1, 174, 239, 1)"></path><path d="M1166.41 266.46L1201.55 266.46L1201.55 301.6L1166.41 301.6z" fill="rgba(163, 212, 59, 1)"></path><path d="M98.72 176.52 a54.72 54.72 0 1 0 109.44 0 a54.72 54.72 0 1 0 -109.44 0z" fill="rgba(1, 174, 239, 1)"></path><path d="M1117.01 451.38L1145.96 451.38L1145.96 505.1L1117.01 505.1z" stroke="rgba(0, 221, 153, 1)"></path><path d="M469.85 369.1L518.35 369.1L518.35 417.6L469.85 417.6z" fill="rgba(163, 212, 59, 1)"></path><path d="M1379.66 95.21L1385.11 95.21L1385.11 100.66L1379.66 100.66z" stroke="rgba(1, 174, 239, 1)"></path><path d="M764.37 426.92L807.23 426.92L807.23 456.84L764.37 456.84z" stroke="rgba(163, 212, 59, 1)"></path><path d="M298.93 536.96L329.89 536.96L329.89 583.65L298.93 583.65z" stroke="rgba(1, 174, 239, 1)"></path><path d="M1323.97 451.02L1341.02 451.02L1341.02 468.07L1323.97 468.07z" stroke="rgba(0, 221, 153, 1)"></path><path d="M881.65 86.92a6.73 6.73 0 1 0 12.76-4.3z" fill="rgba(163, 212, 59, 1)"></path><path d="M746.13 207.29 a28.35 28.35 0 1 0 56.7 0 a28.35 28.35 0 1 0 -56.7 0z" stroke="rgba(0, 221, 153, 1)"></path><path d="M392.25 233.71 a39.49 39.49 0 1 0 78.98 0 a39.49 39.49 0 1 0 -78.98 0z" fill="rgba(1, 174, 239, 1)"></path><path d="M1240.05 559.76 a17.99 17.99 0 1 0 35.98 0 a17.99 17.99 0 1 0 -35.98 0z" fill="rgba(1, 174, 239, 1)"></path><path d="M1026.76 524.88a23.77 23.77 0 1 0-47.43-3.18z" fill="rgba(163, 212, 59, 1)"></path><path d="M1175.18 287.1L1196.49 287.1L1196.49 308.41L1175.18 308.41z" fill="rgba(1, 174, 239, 1)"></path><path d="M1287.27 296.38a19.47 19.47 0 1 0 38.4-6.52z" fill="rgba(0, 221, 153, 1)"></path><path d="M738.98 54.61a37.31 37.31 0 1 0-62.41-40.9z" stroke="rgba(0, 221, 153, 1)"></path><path d="M1009.61 487.67L1053.39 487.67L1053.39 531.45L1009.61 531.45z" fill="rgba(0, 221, 153, 1)"></path><path d="M386.11 433.63 a8.05 8.05 0 1 0 16.1 0 a8.05 8.05 0 1 0 -16.1 0z" fill="rgba(1, 174, 239, 1)"></path><path d="M1219.67 405.66L1260.88 405.66L1260.88 431.34L1219.67 431.34z" fill="rgba(163, 212, 59, 1)"></path><path d="M18.14 329.38L53.97 329.38L53.97 382.49L18.14 382.49z" fill="rgba(163, 212, 59, 1)"></path><path d="M123.54 425.05 a20.79 20.79 0 1 0 41.58 0 a20.79 20.79 0 1 0 -41.58 0z" fill="rgba(0, 221, 153, 1)"></path><path d="M975.96 328.77 a27.19 27.19 0 1 0 54.38 0 a27.19 27.19 0 1 0 -54.38 0z" stroke="rgba(1, 174, 239, 1)"></path><path d="M776.74 476.15L807.97 476.15L807.97 496.98L776.74 496.98z" fill="rgba(0, 221, 153, 1)"></path><path d="M1430.86 282.24L1472.62 282.24L1472.62 293.16L1430.86 293.16z" fill="rgba(163, 212, 59, 1)"></path><path d="M1332.6 7.17L1333.13 7.17L1333.13 57.71L1332.6 57.71z" stroke="rgba(1, 174, 239, 1)"></path><path d="M522.05 408.79L536.75 408.79L536.75 423.49L522.05 423.49z" fill="rgba(0, 221, 153, 1)"></path><path d="M406.68 290.84a25.62 25.62 0 1 0-43.98-26.31z" fill="rgba(1, 174, 239, 1)"></path><path d="M1024.75 54.3a21.41 21.41 0 1 0 16.48-39.53z" fill="rgba(163, 212, 59, 1)"></path><path d="M1198.74 104.55 a15.02 15.02 0 1 0 30.04 0 a15.02 15.02 0 1 0 -30.04 0z" stroke="rgba(163, 212, 59, 1)"></path><path d="M918.13 346.14a33.49 33.49 0 1 0-55.16-37.99z" stroke="rgba(163, 212, 59, 1)"></path></g><defs><mask id="SvgjsMask1008"><rect width="1440" height="560" fill="#ffffff"></rect></mask></defs></svg>
