<svg xmlns="http://www.w3.org/2000/svg" width="96" height="96"><path fill="#1AB3EF" d="m20.284 6.88 3.062.006h3.458l3.762.016 3.83.005q5.047.007 10.096.024 5.147.014 10.295.02Q64.893 6.968 75 7q.066 2.166.103 4.333l.058 2.437c-.244 3.372-1.706 4.806-4.099 7.105C67.514 24.463 64.186 28.082 61 32l-2.25 2.75C56.984 36.87 56.984 36.87 56 39l3.648-1.312L64.375 36l2.406-.867 2.305-.82 2.126-.762C73 33 73 33 75 33c-3.703 7.956-10.213 14.481-15.867 21.115a442 442 0 0 0-10.281 12.569C46.609 69.489 44.299 72.24 42 75l38 1v14c-4.294.716-7.745 1.123-12.005 1.114h-3.518l-3.75-.016-3.876-.005q-5.074-.007-10.15-.024-5.189-.014-10.377-.02Q26.161 91.032 16 91c1.235-3.171 2.452-5.908 4.434-8.68l1.452-2.045 1.551-2.15 1.595-2.234C30.29 68.546 35.63 61.262 41 54l-2.09.586C32.968 56.232 27.03 57.715 21 59c3.488-4.902 7.213-9.413 11.312-13.812C37.464 39.658 42.285 33.909 47 28l4-5-3.013-.076a4896 4896 0 0 1-11.031-.296q-2.391-.066-4.781-.125a2114 2114 0 0 1-6.859-.187l-2.171-.05C18.114 22.114 18.114 22.114 17 21c-.099-2.165-.13-4.333-.125-6.5l-.008-3.594c.176-3.856.176-3.856 3.417-4.026"/><path fill="#CBF539" d="M54 49h4c.816 2.07.816 2.07 1 5a59 59 0 0 1-5.062 6.875l-1.452 1.777C49.06 66.827 45.515 70.9 42 75l38 1v14c-4.294.716-7.745 1.123-12.005 1.114h-3.518l-3.75-.016-3.876-.005q-5.074-.007-10.15-.024-5.189-.014-10.377-.02Q26.161 91.032 16 91c1.228-3.152 2.435-5.886 4.398-8.645l1.436-2.03 1.541-2.138 1.591-2.226Q27.472 72.473 30 69l1.705-2.354q2.448-3.363 4.92-6.709l1.54-2.11C39.396 56.18 40.692 54.584 42 53h2l1-3 2 1v2c3.747-1.633 3.747-1.633 7-4"/><path fill="#60C6A5" d="m20.284 6.88 3.062.006h3.458l3.762.016 3.83.005q5.047.007 10.096.024 5.147.014 10.295.02Q64.893 6.968 75 7q.066 2.166.103 4.333l.058 2.437c-.244 3.372-1.706 4.806-4.099 7.105C67.514 24.463 64.186 28.082 61 32l-2.25 2.75C56.984 36.87 56.984 36.87 56 39l3.648-1.312L64.375 36l2.406-.867 2.305-.82 2.126-.762C73 33 73 33 75 33c-3.47 7.535-9.59 13.797-15 20l-2-4c-2.972 1.125-5.334 2.223-8 4h-3l-2-2-1 2c-2.139.752-4.313 1.402-6.5 2l-3.82 1.047A263 263 0 0 1 21 59c3.968-5.577 8.284-10.622 12.952-15.61C37.1 40.02 40.077 36.563 43 33c0 5.785-4.91 10.181-8.633 14.29C32.922 49.096 31.962 50.9 31 53c4.118-2.115 5.67-4.083 8-8h3l.687-1.687c2.241-3.948 5.253-6.639 9.063-9.063C57.583 30.212 62.845 25.39 66 19l3-2.375c3.583-2.689 3.583-2.689 5-8.625H19v13h35v1q-7.663.037-15.326.055-2.609.008-5.218.02c-2.494.013-4.989.018-7.483.023l-2.37.015c-1.869 0-3.736-.051-5.603-.113-1-1-1-1-1.133-3.906l.008-3.594-.008-3.594c.176-3.856.176-3.856 3.417-4.026"/><path fill="#9DC567" d="M54 49h4c.816 2.07.816 2.07 1 5a59 59 0 0 1-5.062 6.875l-1.452 1.777C49.06 66.827 45.515 70.9 42 75l38 1v14c-4.246.708-7.63 1.12-11.836 1.098l-3.223-.01-3.316-.025-3.387-.014A2531 2531 0 0 1 50 91v-2h29V77H39c2.55-5.1 5.205-9.715 9-14h2l1-4c-11.63 8.262-11.63 8.262-20.312 19.375C28.297 82.094 25.191 84.965 22 88l7 1c-2 2-2 2-4.602 2.195l-3.023-.07-3.04-.055L16 91c1.613-4.886 4.4-8.682 7.375-12.812l1.591-2.227Q27.472 72.473 30 69l1.705-2.354q2.448-3.363 4.92-6.709l1.54-2.11C39.396 56.18 40.692 54.584 42 53h2l1-3 2 1v2c3.747-1.633 3.747-1.633 7-4"/><path fill="#3996B5" d="m20.284 6.88 3.062.006h3.458l3.762.016 3.83.005q5.047.007 10.096.024 5.147.014 10.295.02Q64.893 6.968 75 7q.066 2.166.103 4.333l.058 2.437c-.244 3.372-1.706 4.806-4.099 7.105-3.446 3.473-6.602 6.963-9.625 10.813C51.42 43.97 51.42 43.97 45 44.938L42 45c1.967-4.83 5.4-7.982 9.75-10.75C57.583 30.212 62.845 25.39 66 19l3-2.375c3.583-2.689 3.583-2.689 5-8.625H19v13h35v1q-7.663.037-15.326.055-2.609.008-5.218.02c-2.494.013-4.989.018-7.483.023l-2.37.015c-1.869 0-3.736-.051-5.603-.113-1-1-1-1-1.133-3.906l.008-3.594-.008-3.594c.176-3.856.176-3.856 3.417-4.026"/><path fill="#A5D859" d="M43 56c2.987.498 4.393 1.262 7 3l-2.45 2.23-3.237 2.958-1.608 1.462c-6.325 5.64-6.325 5.64-11.58 12.225C28.5 81.735 25.375 84.796 22 88l7 1c-2 2-2 2-4.602 2.195l-3.023-.07-3.04-.055L16 91c1.656-5.197 4.84-9.258 8-13.625l3.25-4.54c.48-.664.96-1.328 1.453-2.013A191 191 0 0 0 32 66l3-1c1.85-1.826 1.85-1.826 3.625-4l1.852-2.187L42 57z"/><path fill="#6BBDA8" d="M43 33c0 5.785-4.91 10.181-8.633 14.29C32.9 49.125 31.866 50.812 31 53l1 2h-2v2l-9 2c3.968-5.577 8.284-10.622 12.952-15.61C37.1 40.02 40.077 36.563 43 33"/><path fill="#94CD73" d="M59 54q-2.592 3.314-5.187 6.625l-1.463 1.871A429 429 0 0 1 43 74c-1-3-1-3-.312-4.937C44.212 66.667 45.865 64.868 48 63h2v-4l-3-2c3.917-3.337 7-4.667 12-3"/><path fill="#76CAA0" d="M66.5 41.063 69 42c-3.208 3.806-6.407 7.546-10 11l-.312-1.937L58 49l-3-1c6.897-7.02 6.897-7.02 11.5-6.937"/><path fill="#62C4B0" d="M75 33c-1.54 3.466-3.31 6.31-6 9-3.125.25-3.125.25-6 0l-2 1c.613-2.962 1.254-4.38 3-7 2.094-.95 2.094-.95 4.5-1.687l2.406-.762C73 33 73 33 75 33"/><path fill="#C7F037" d="M30 77c0 3 0 3-1.75 5.043L26 84.187l-2.25 2.168L22 88l7 1c-2 2-2 2-4.602 2.195l-3.023-.07-3.04-.055L16 91l2-5h3v-2a263 263 0 0 1 5-4l1-2z"/><path fill="#68BD9C" d="M42 48v2l3 1c-1 2-1 2-3.398 2.887l-2.977.8-2.96.825C33 56 33 56 30 55h2l1-3c5.257-4 5.257-4 9-4"/><path fill="#2EB9E3" d="m65 20 1 4-1.703.71c-2.843 1.597-4.778 3.58-7.047 5.915l-2.422 2.477L53 35l-2-1c4.329-5.184 8.766-9.727 14-14"/><path fill="#51AFB7" d="M43 33c0 5.132-3.32 8.29-6.75 11.875L34 47l-3-1 1.61-1.574C36.31 40.772 39.871 37.17 43 33"/><path fill="#3FA4C4" d="M68 7h7c.294 3.053.445 5.957 0 9-2.5 2.563-2.5 2.563-5 4v-5l2-1c.727-1.979 1.398-3.98 2-6h-6z"/><path fill="#50C5C1" d="m51 37 3 1v2c-3.933 3.09-7.021 4.526-12 5v-2l5.273-2.93C49.161 38.991 49.161 38.991 51 37"/><path fill="#7A8C59" d="m18 86 1 2c2.356.468 2.356.468 5.063.625l2.785.227L29 89c-2 2-2 2-4.602 2.195l-3.023-.07-3.04-.055L16 91z"/><path fill="#7ED589" d="m58 49 1 4c-2.915.81-4.461 1.218-7.312.063L50 52c3.061-2.624 3.732-3 8-3"/><path fill="#3BB0D3" d="M69 17c.75 1.75.75 1.75 1 4-1.937 2.25-1.937 2.25-4 4-.187-2.875-.187-2.875 0-6z"/><path fill="#A0C05B" d="m47 65 2 2-6 7c-1-3-1-3-.25-5.062C44 67 44 67 47 65"/><path fill="#42C5D2" d="m50 35 2 1c-2.657 3.739-4.581 5.65-9 7 1.491-3.795 3.757-5.61 7-8"/><path fill="#74ACA4" d="M75 33c-1.443 3.366-3.333 5.51-6 8l2-6-2-1c2.076-.553 3.844-1 6-1"/><path fill="#86BB81" d="m42 53 3 1-6 6-2-1z"/></svg>